<svg width="50" height="50" viewBox="0 0 50 50" xmlns="http://www.w3.org/2000/svg">
<path d="M31.293 50H17.7188C11.257 50 6 44.743 6 38.2812V11.7188C6 5.25703 11.257 0 17.7188 0H31.293C37.7547 0 43.0117 5.25703 43.0117 11.7188V38.2812C43.0117 44.743 37.7547 50 31.293 50ZM17.7188 3.90625C13.4109 3.90625 9.90625 7.41094 9.90625 11.7188V38.2812C9.90625 42.5891 13.4109 46.0938 17.7188 46.0938H31.293C35.6008 46.0938 39.1055 42.5891 39.1055 38.2812V11.7188C39.1055 7.41094 35.6008 3.90625 31.293 3.90625H17.7188ZM35.1992 14.7461C35.1992 13.6674 34.3248 12.793 33.2461 12.793H15.7656C13.1742 12.8961 13.1762 16.597 15.7656 16.6992H33.2461C34.3248 16.6992 35.1992 15.8248 35.1992 14.7461ZM34.9062 40.2344V30.957C34.8031 28.3656 31.1022 28.3676 31 30.957V40.2344C31 41.3131 31.8744 42.1875 32.9531 42.1875C34.0318 42.1875 34.9062 41.3131 34.9062 40.2344ZM16.1562 29.0039C14.8079 29.0039 13.7148 30.097 13.7148 31.4453C13.8435 34.6838 18.4695 34.6829 18.5977 31.4453C18.5977 30.097 17.5046 29.0039 16.1562 29.0039ZM24.5547 29.0039C23.2063 29.0039 22.1133 30.097 22.1133 31.4453C22.2419 34.6838 26.868 34.6829 26.9961 31.4453C26.9961 30.097 25.903 29.0039 24.5547 29.0039ZM16.1562 37.3047C14.8079 37.3047 13.7148 38.3978 13.7148 39.7461C13.8435 42.9846 18.4695 42.9837 18.5977 39.7461C18.5977 38.3978 17.5046 37.3047 16.1562 37.3047ZM24.5547 37.3047C23.2063 37.3047 22.1133 38.3978 22.1133 39.7461C22.2419 42.9846 26.868 42.9837 26.9961 39.7461C26.9961 38.3978 25.903 37.3047 24.5547 37.3047ZM18.5 23.0469C18.5 24.3952 17.4069 25.4883 16.0586 25.4883C12.8201 25.3597 12.821 20.7336 16.0586 20.6055C17.4069 20.6055 18.5 21.6985 18.5 23.0469ZM24.5547 20.6055C23.2063 20.6055 22.1133 21.6985 22.1133 23.0469C22.2419 26.2854 26.868 26.2845 26.9961 23.0469C26.9961 21.6985 25.903 20.6055 24.5547 20.6055ZM32.9531 20.6055C31.6048 20.6055 30.5117 21.6985 30.5117 23.0469C30.6403 26.2854 35.2664 26.2845 35.3945 23.0469C35.3945 21.6985 34.3015 20.6055 32.9531 20.6055Z"/>
</svg>
