<svg width="50" height="50" viewBox="0 0 50 50" xmlns="http://www.w3.org/2000/svg">
<path d="M42.7876 50C41.7588 50 40.7512 49.6231 39.9401 48.897L35.0719 44.613C34.2624 43.9007 34.1836 42.667 34.896 41.8575C35.6083 41.048 36.8421 40.9693 37.6515 41.6815L42.527 45.9719C42.5325 45.9767 42.5379 45.9816 42.5433 45.9864C42.59 46.0283 42.7317 46.156 42.9634 46.0529C43.195 45.9497 43.195 45.7589 43.195 45.6962V11.7142C43.195 7.40807 39.6917 3.90474 35.3855 3.90474H13.7142C9.40807 3.90474 5.90474 7.40807 5.90474 11.7142V33.3855C5.90474 37.6917 9.40807 41.195 13.7142 41.195H28.7475C31.3379 41.2981 31.3359 44.9975 28.7475 45.0997H13.7142C7.255 45.0997 2 39.8447 2 33.3855V11.7142C2 5.255 7.255 0 13.7142 0H35.3855C41.8448 0 47.0997 5.255 47.0997 11.7142V45.6963C47.0997 47.4166 46.1235 48.92 44.5519 49.62C43.9791 49.875 43.3798 50 42.7876 50V50ZM33.7979 25.7837C32.8882 25.2045 31.6815 25.4729 31.1026 26.3827C27.5554 31.4779 21.4107 31.2864 17.8995 26.3827C17.3206 25.473 16.114 25.2046 15.2043 25.7837C14.2946 26.3626 14.0264 27.5693 14.6053 28.4789C14.7505 28.7072 18.3314 34.0689 24.5498 34.0689C30.7682 34.0689 34.2516 28.7072 34.3968 28.4789C34.9757 27.5693 34.7076 26.3626 33.7979 25.7837V25.7837ZM32.164 20.6951C31.0857 20.6951 30.2116 19.821 30.2116 18.7428V13.3737C30.3147 10.7833 34.0142 10.7853 34.1164 13.3737V18.7428C34.1164 19.821 33.2423 20.6951 32.164 20.6951ZM18.9855 18.7428V13.3737C18.8824 10.7833 15.183 10.7853 15.0808 13.3737V18.7428C15.0808 19.821 15.9549 20.6951 17.0332 20.6951C18.1114 20.6951 18.9855 19.821 18.9855 18.7428Z"/>
</svg>
