<svg width="51" height="50" viewBox="0 0 51 50" xmlns="http://www.w3.org/2000/svg">
<path d="M38.2868 50H11.7204C5.25779 50 0 44.7422 0 38.2796V21.8445C0 18.212 1.72437 14.7282 4.61258 12.5252L17.8958 2.39398C22.0808 -0.797992 27.9264 -0.797992 32.1115 2.39398L36.3334 5.61124V3.1182C36.4365 0.526419 40.1379 0.528372 40.2402 3.1182V9.55576C40.2402 10.2983 39.8192 10.9767 39.1536 11.3063C38.4881 11.6358 37.6934 11.5595 37.1027 11.1095L29.7428 5.50097C26.9522 3.37254 23.0549 3.37253 20.265 5.50048L6.98177 15.6317C5.0564 17.1002 3.90682 19.4227 3.90682 21.8445V38.2796C3.90682 42.588 7.41201 46.0932 11.7204 46.0932H38.2868C42.5952 46.0932 46.1004 42.588 46.1004 38.2796V21.8445C46.1004 19.393 44.9638 17.0626 43.0601 15.6104C42.2022 14.9561 42.0372 13.7304 42.6915 12.8726C43.3458 12.0148 44.5717 11.8498 45.4293 12.5041C48.2959 14.6904 50.0073 18.1821 50.0073 21.8445V38.2796C50.0073 44.7422 44.7495 50 38.2868 50V50ZM21.0968 22.5546C19.7483 22.5546 18.655 23.6478 18.655 24.9964C18.7841 28.2361 23.4107 28.2337 23.5386 24.9964C23.5386 23.6477 22.4453 22.5546 21.0968 22.5546ZM31.3522 24.9963C31.2232 28.236 26.5965 28.2336 26.4687 24.9963C26.5977 21.7565 31.2244 21.7591 31.3522 24.9963ZM23.5386 32.8099C23.4095 36.0496 18.7829 36.0472 18.655 32.8099C18.7841 29.5702 23.4107 29.5727 23.5386 32.8099ZM31.3522 32.8099C31.2232 36.0496 26.5965 36.0472 26.4687 32.8099C26.5977 29.5702 31.2244 29.5727 31.3522 32.8099Z"/>
</svg>
