<svg width="50" height="50" viewBox="0 0 50 50" xmlns="http://www.w3.org/2000/svg">
<path d="M28.8499 49.9999H11.6959C5.24678 49.9999 0 44.7429 0 38.2812V11.7187C0 5.25702 5.24678 0 11.6959 0H38.2066C44.6558 0 49.9025 5.25702 49.9025 11.7187V21.582C49.7996 24.1734 46.1059 24.1714 46.0039 21.582V11.7187C46.0039 7.41092 42.506 3.90624 38.2066 3.90624H11.6959C7.39649 3.90624 3.89864 7.41092 3.89864 11.7187V38.2812C3.89864 42.589 7.39649 46.0937 11.6959 46.0937H28.8499C31.4363 46.1968 31.4343 49.8977 28.8499 49.9999ZM26.4319 17.1966L32.47 11.1467C33.2313 10.3839 33.2312 9.14725 32.4699 8.38455C31.7088 7.62176 30.4744 7.62176 29.7132 8.38455L23.675 14.4345C23.3058 14.8045 22.8141 15.0045 22.2929 15.0066C21.7709 15.0056 21.2808 14.8006 20.9131 14.4293L14.9314 8.38993C14.173 7.6242 12.9387 7.61952 12.1747 8.37938C11.4105 9.13924 11.4058 10.3759 12.1641 11.1415L18.1458 17.1808C19.249 18.2947 20.7192 18.9098 22.2855 18.9129H22.2971C23.8589 18.9128 25.327 18.3036 26.4319 17.1966V17.1966ZM11.2321 32.4259L15.4191 28.1714C17.6594 25.895 17.6529 22.1974 15.4047 19.9289L11.2272 15.7136C10.4686 14.9483 9.2345 14.9439 8.47047 15.7039C7.70653 16.4639 7.70224 17.7006 8.46072 18.466L12.6382 22.6812C13.3876 23.4374 13.3898 24.67 12.643 25.4288L8.45595 29.6832C7.7001 30.4513 7.70867 31.6879 8.47534 32.4453C8.85507 32.8205 9.34961 33.0077 9.84396 33.0077C10.3475 33.0077 10.8507 32.8135 11.2321 32.4259V32.4259ZM43.6426 48.0204C47.8611 42.655 50 38.562 50 35.8554C50 30.0851 45.3216 25.3906 39.5712 25.3906C33.8207 25.3906 29.1423 30.0851 29.1423 35.8554C29.1423 38.5621 31.2812 42.655 35.4997 48.0205C36.4888 49.2785 37.9728 50 39.5712 50C41.1695 50 42.6535 49.2784 43.6426 48.0204V48.0204ZM42.1113 46.8118H42.1123H42.1113ZM46.1014 35.8554C46.1014 37.1729 44.6509 40.4255 40.5801 45.6032C40.0484 46.2622 39.0948 46.2632 38.5623 45.6032C34.4914 40.4255 33.0409 37.1729 33.0409 35.8554C33.0409 32.239 35.9704 29.2968 39.5712 29.2968C43.1719 29.2968 46.1014 32.239 46.1014 35.8554V35.8554ZM11.7934 42.1874C10.0818 42.1978 9.18597 40.0773 10.415 38.8532L38.7776 10.4353C39.5389 9.67254 40.7732 9.67254 41.5344 10.4353C42.2956 11.1981 42.2956 12.4347 41.5344 13.1974L13.1718 41.6154C12.7911 41.9967 12.2923 42.1874 11.7934 42.1874V42.1874ZM37.1345 35.6445C37.1345 36.9928 38.2254 38.0859 39.5712 38.0859C42.8033 37.9573 42.8024 33.3312 39.5712 33.2031C38.2254 33.2031 37.1345 34.2961 37.1345 35.6445Z"/>
</svg>
