<svg width="17" height="14" viewBox="0 0 17 14" xmlns="http://www.w3.org/2000/svg">
<path d="M15.1658 2.5H12.4563L12.107 0.753656C12.0197 0.316969 11.6331 0 11.1877 0H5.9563C5.51099 0 5.12433 0.316969 5.03702 0.753656L4.68774 2.5H1.97827C1.20287 2.5 0.572021 3.13084 0.572021 3.90625V12.0312C0.572021 12.8067 1.20287 13.4375 1.97827 13.4375H15.1658C15.9412 13.4375 16.572 12.8067 16.572 12.0312V3.90625C16.572 3.13084 15.9412 2.5 15.1658 2.5ZM5.9563 0.9375H11.1877L11.5002 2.5H5.6438L5.9563 0.9375ZM15.6345 12.0312C15.6345 12.2897 15.4242 12.5 15.1658 12.5H1.97827C1.7198 12.5 1.50952 12.2897 1.50952 12.0312V3.90625C1.50952 3.64778 1.7198 3.4375 1.97827 3.4375H15.1658C15.4242 3.4375 15.6345 3.64778 15.6345 3.90625V12.0312Z"/>
<path d="M8.57202 4.50005C6.65933 4.50005 5.10327 6.05611 5.10327 7.9688C5.10327 9.88148 6.65933 11.4375 8.57202 11.4375C10.4847 11.4375 12.0408 9.88148 12.0408 7.9688C12.0408 6.05611 10.4847 4.50005 8.57202 4.50005ZM8.57202 10.5C7.17627 10.5 6.04077 9.36451 6.04077 7.9688C6.04077 6.57308 7.17627 5.43755 8.57202 5.43755C9.96777 5.43755 11.1033 6.57308 11.1033 7.9688C11.1033 9.36451 9.96777 10.5 8.57202 10.5Z"/>
<path d="M4.57201 4.50005H3.07201C2.81314 4.50005 2.60326 4.70992 2.60326 4.9688C2.60326 5.22767 2.81314 5.43755 3.07201 5.43755H4.57201C4.83089 5.43755 5.04076 5.22767 5.04076 4.9688C5.04076 4.70992 4.83089 4.50005 4.57201 4.50005Z"/>
</svg>
