<svg width="16" height="16" viewBox="0 0 16 16" fill="none" xmlns="http://www.w3.org/2000/svg">
<path d="M7.99998 0C3.58172 0 0 3.58172 0 7.99998C0 12.4183 3.58172 16 7.99998 16C12.4183 16 16 12.4183 16 7.99998C15.9953 3.58369 12.4163 0.00472098 7.99998 0ZM7.99998 14.8571C4.21289 14.8571 1.14285 11.7871 1.14285 7.99998C1.14285 4.21289 4.21289 1.14285 7.99998 1.14285C11.7871 1.14285 14.8571 4.21289 14.8571 7.99998C14.853 11.7854 11.7854 14.853 7.99998 14.8571Z" fill="white"/>
<path d="M11.3691 7.7451C11.3137 7.634 11.2237 7.54394 11.1125 7.48856L6.54113 5.20283C6.25881 5.06177 5.91562 5.17625 5.77452 5.45857C5.73485 5.53796 5.71422 5.62551 5.71425 5.71427V10.2857C5.71412 10.6013 5.96982 10.8573 6.28543 10.8574C6.37419 10.8575 6.46174 10.8368 6.54113 10.7972L11.1125 8.51144C11.395 8.37068 11.5099 8.02755 11.3691 7.7451ZM6.85713 9.36115V6.63885L9.57943 8L6.85713 9.36115Z" fill="white"/>
</svg>
