<svg width="50" height="50" viewBox="0 0 50 50" fill="none" xmlns="http://www.w3.org/2000/svg">
<path d="M33.5193 31.9974C35.99 31.9974 38 29.9874 38 27.5166C38 25.8448 37.054 24.3121 35.5971 23.5465C35.8643 22.9636 36.0038 22.3277 36.0038 21.6798C36.0038 19.2092 33.9938 17.1992 31.5232 17.1992C30.44 17.1992 29.4221 17.5818 28.625 18.2601V15.92C28.8478 15.8746 29.0156 15.6775 29.0156 15.4414V13.4883C29.0156 13.2186 28.797 13 28.5273 13H13.4883C13.2186 13 13 13.2186 13 13.4883V15.4414C13 15.6775 13.1678 15.8746 13.3906 15.92V37.5117C13.3906 37.7814 13.6092 38 13.8789 38H33.0178C33.1624 38 33.2993 37.9361 33.3922 37.8253C33.6926 37.4665 33.8582 37.0112 33.8582 36.5432C33.8582 35.4926 33.0426 34.6293 32.0115 34.5519V31.7365C32.4929 31.9081 33.0035 31.9974 33.5193 31.9974ZM31.5232 18.1758C33.4554 18.1758 35.0272 19.7476 35.0272 21.68C35.0272 22.3321 34.8468 22.9686 34.5054 23.5206C34.4285 23.6447 34.4111 23.7969 34.4584 23.9352C34.5055 24.0735 34.6122 24.1834 34.7491 24.2347C36.1094 24.7445 37.0234 26.0636 37.0234 27.5166C37.0234 29.4488 35.4516 31.0208 33.5193 31.0208C32.9959 31.0208 32.4799 30.9033 32.0115 30.6802V29.0227L34.2278 26.8062C34.4186 26.6154 34.4186 26.3062 34.2278 26.1155C34.0373 25.925 33.7281 25.925 33.5374 26.1155L32.0115 27.6416V22.9773C32.0115 22.7076 31.7927 22.4891 31.5232 22.4891C31.2535 22.4891 31.0349 22.7076 31.0349 22.9773V25.2978L30.631 24.8938C30.4402 24.7033 30.1312 24.7033 29.9403 24.8938C29.7498 25.0846 29.7498 25.3938 29.9403 25.5845L31.0349 26.6789V30.6802C30.5663 30.9033 30.0504 31.0208 29.527 31.0208C29.2197 31.0208 28.9176 30.9811 28.625 30.9033V19.7099C29.2798 18.7468 30.3531 18.1758 31.5232 18.1758ZM31.0349 34.1206C30.5392 33.5711 29.8253 33.2393 29.0501 33.2393C28.9061 33.2393 28.7642 33.2511 28.625 33.2734V31.9054C28.9203 31.9659 29.2216 31.9974 29.527 31.9974C30.0429 31.9974 30.5533 31.9081 31.0349 31.7365V34.1206ZM14.3672 15.9297H18.7943C19.0638 15.9297 19.2826 15.7111 19.2826 15.4414C19.2826 15.1717 19.0638 14.9531 18.7943 14.9531H13.9766V13.9766H28.0391V14.9531H23.1887C22.9192 14.9531 22.7004 15.1717 22.7004 15.4414C22.7004 15.7111 22.9192 15.9297 23.1887 15.9297H27.6484V33.6366C27.2818 33.8624 26.97 34.1763 26.7461 34.5569C26.7213 34.5595 26.6965 34.563 26.6719 34.5666V32.1406C26.6719 31.8709 26.4533 31.6523 26.1836 31.6523H24.0352C23.7655 31.6523 23.5469 31.8709 23.5469 32.1406V34.875C23.5469 35.1447 23.7655 35.3633 24.0352 35.3633H25.3487C25.1058 35.6942 24.9617 36.102 24.9617 36.5432C24.9617 36.7061 24.9822 36.8672 25.0209 37.0234H14.3672V15.9297ZM25.6953 34.3867H24.5234V32.6289H25.6953V34.3867ZM32.8816 36.5432C32.8816 36.7114 32.8399 36.8766 32.7615 37.0234H26.0585C25.9803 36.8766 25.9383 36.7114 25.9383 36.5432C25.9383 35.9803 26.3963 35.5224 26.9591 35.5224C26.9795 35.5224 26.9999 35.5231 27.02 35.5243C27.2244 35.5359 27.4136 35.4199 27.4957 35.2326C27.7661 34.615 28.3763 34.2158 29.0501 34.2158C29.7833 34.2158 30.4305 34.6833 30.6607 35.3793C30.7067 35.5176 30.8118 35.6284 30.9476 35.681C31.0834 35.7339 31.2358 35.7232 31.363 35.6519C31.5144 35.5672 31.6865 35.5224 31.8608 35.5224C32.4237 35.5224 32.8816 35.9803 32.8816 36.5432Z" fill="white"/>
<path d="M17.9805 31.6523H15.832C15.5623 31.6523 15.3437 31.8709 15.3437 32.1406V34.875C15.3437 35.1447 15.5623 35.3633 15.832 35.3633H17.9805C18.2502 35.3633 18.4687 35.1447 18.4687 34.875V32.1406C18.4687 31.8709 18.2502 31.6523 17.9805 31.6523ZM17.4922 34.3867H16.3203V32.6289H17.4922V34.3867Z" fill="white"/>
<path d="M22.082 31.6523H19.9336C19.6639 31.6523 19.4453 31.8709 19.4453 32.1406V34.875C19.4453 35.1447 19.6639 35.3633 19.9336 35.3633H22.082C22.3517 35.3633 22.5703 35.1447 22.5703 34.875V32.1406C22.5703 31.8709 22.3517 31.6523 22.082 31.6523ZM21.5937 34.3867H20.4219V32.6289H21.5937V34.3867Z" fill="white"/>
<path d="M17.9805 26.9649H15.832C15.5623 26.9649 15.3437 27.1835 15.3437 27.4532V30.1875C15.3437 30.4572 15.5623 30.6758 15.832 30.6758H17.9805C18.2502 30.6758 18.4687 30.4572 18.4687 30.1875V27.4532C18.4687 27.1835 18.2502 26.9649 17.9805 26.9649ZM17.4922 29.6992H16.3203V27.9414H17.4922V29.6992Z" fill="white"/>
<path d="M22.082 26.9649H19.9336C19.6639 26.9649 19.4453 27.1835 19.4453 27.4532V30.1875C19.4453 30.4572 19.6639 30.6758 19.9336 30.6758H22.082C22.3517 30.6758 22.5703 30.4572 22.5703 30.1875V27.4532C22.5703 27.1835 22.3517 26.9649 22.082 26.9649ZM21.5937 29.6992H20.4219V27.9414H21.5937V29.6992Z" fill="white"/>
<path d="M24.0352 30.6758H26.1836C26.4533 30.6758 26.6719 30.4572 26.6719 30.1875V27.4532C26.6719 27.1835 26.4533 26.9649 26.1836 26.9649H24.0352C23.7655 26.9649 23.5469 27.1835 23.5469 27.4532V30.1875C23.5469 30.4572 23.7655 30.6758 24.0352 30.6758ZM24.5234 27.9414H25.6953V29.6992H24.5234V27.9414Z" fill="white"/>
<path d="M17.9805 22.2774H15.832C15.5623 22.2774 15.3437 22.496 15.3437 22.7657V25.5001C15.3437 25.7698 15.5623 25.9884 15.832 25.9884H17.9805C18.2502 25.9884 18.4687 25.7698 18.4687 25.5001V22.7657C18.4687 22.496 18.2502 22.2774 17.9805 22.2774ZM17.4922 25.0118H16.3203V23.254H17.4922V25.0118Z" fill="white"/>
<path d="M22.082 22.2774H19.9336C19.6639 22.2774 19.4453 22.496 19.4453 22.7657V25.5001C19.4453 25.7698 19.6639 25.9884 19.9336 25.9884H22.082C22.3517 25.9884 22.5703 25.7698 22.5703 25.5001V22.7657C22.5703 22.496 22.3517 22.2774 22.082 22.2774ZM21.5937 25.0118H20.4219V23.254H21.5937V25.0118Z" fill="white"/>
<path d="M24.0352 25.9884H26.1836C26.4533 25.9884 26.6719 25.7698 26.6719 25.5001V22.7657C26.6719 22.496 26.4533 22.2774 26.1836 22.2774H24.0352C23.7655 22.2774 23.5469 22.496 23.5469 22.7657V25.5001C23.5469 25.7698 23.7655 25.9884 24.0352 25.9884ZM24.5234 23.254H25.6953V25.0118H24.5234V23.254Z" fill="white"/>
<path d="M17.9805 17.5898H15.832C15.5623 17.5898 15.3437 17.8084 15.3437 18.0781V20.8124C15.3437 21.0821 15.5623 21.3007 15.832 21.3007H17.9805C18.2502 21.3007 18.4687 21.0821 18.4687 20.8124V18.0781C18.4687 17.8084 18.2502 17.5898 17.9805 17.5898ZM17.4922 20.3242H16.3203V18.5663H17.4922V20.3242Z" fill="white"/>
<path d="M22.082 17.5898H19.9336C19.6639 17.5898 19.4453 17.8084 19.4453 18.0781V20.8124C19.4453 21.0821 19.6639 21.3007 19.9336 21.3007H22.082C22.3517 21.3007 22.5703 21.0821 22.5703 20.8124V18.0781C22.5703 17.8084 22.3517 17.5898 22.082 17.5898ZM21.5937 20.3242H20.4219V18.5663H21.5937V20.3242Z" fill="white"/>
<path d="M24.0352 21.3007H26.1836C26.4533 21.3007 26.6719 21.0821 26.6719 20.8124V18.0781C26.6719 17.8084 26.4533 17.5898 26.1836 17.5898H24.0352C23.7655 17.5898 23.5469 17.8084 23.5469 18.0781V20.8124C23.5469 21.0821 23.7655 21.3007 24.0352 21.3007ZM24.5234 18.5663H25.6953V20.3242H24.5234V18.5663Z" fill="white"/>
<path d="M20.9918 15.9296C21.1202 15.9296 21.246 15.8773 21.3368 15.7865C21.4276 15.6958 21.4801 15.5697 21.4801 15.4413C21.4801 15.313 21.4278 15.1869 21.3368 15.0961C21.246 15.0053 21.1202 14.953 20.9918 14.953C20.8627 14.953 20.7374 15.0053 20.6466 15.0961C20.5552 15.1869 20.5035 15.313 20.5035 15.4413C20.5035 15.5697 20.5552 15.6958 20.6466 15.7865C20.7374 15.8773 20.8627 15.9296 20.9918 15.9296Z" fill="white"/>
</svg>
