<svg width="50" height="50" viewBox="0 0 50 50" fill="none" xmlns="http://www.w3.org/2000/svg">
<path d="M17.7115 23.5245L28.8368 12.3994C29.0941 12.1419 29.4376 12 29.8039 12C30.1701 12 30.5136 12.1419 30.7709 12.3994L31.5902 13.2185C32.1234 13.7522 32.1234 14.6197 31.5902 15.1526L22.248 24.4948L31.6006 33.8474C31.8579 34.1049 32 34.4482 32 34.8142C32 35.1807 31.8579 35.524 31.6006 35.7817L30.7813 36.6006C30.5238 36.8581 30.1805 37 29.8142 37C29.448 37 29.1045 36.8581 28.8472 36.6006L17.7115 25.4653C17.4536 25.207 17.3119 24.8621 17.3127 24.4954C17.3119 24.1273 17.4536 23.7826 17.7115 23.5245Z" fill="white"/>
</svg>
