<svg width="50" height="50" viewBox="0 0 50 50" fill="none" xmlns="http://www.w3.org/2000/svg">
<path d="M28.6465 37H21.8594C18.6285 37 16 34.3715 16 31.1406V17.8594C16 14.6285 18.6285 12 21.8594 12H28.6465C31.8773 12 34.5059 14.6285 34.5059 17.8594V31.1406C34.5059 34.3715 31.8773 37 28.6465 37ZM21.8594 13.9531C19.7055 13.9531 17.9531 15.7055 17.9531 17.8594V31.1406C17.9531 33.2945 19.7055 35.0469 21.8594 35.0469H28.6465C30.8004 35.0469 32.5527 33.2945 32.5527 31.1406V17.8594C32.5527 15.7055 30.8004 13.9531 28.6465 13.9531H21.8594ZM30.5996 19.373C30.5996 18.8337 30.1624 18.3965 29.623 18.3965H20.8828C19.5871 18.448 19.5881 20.2985 20.8828 20.3496H29.623C30.1624 20.3496 30.5996 19.9124 30.5996 19.373ZM30.4531 32.1172V27.4785C30.4016 26.1828 28.5511 26.1838 28.5 27.4785V32.1172C28.5 32.6565 28.9372 33.0938 29.4766 33.0938C30.0159 33.0938 30.4531 32.6565 30.4531 32.1172ZM21.0781 26.502C20.404 26.502 19.8574 27.0485 19.8574 27.7227C19.9217 29.3419 22.2348 29.3415 22.2988 27.7227C22.2988 27.0485 21.7523 26.502 21.0781 26.502ZM25.2773 26.502C24.6032 26.502 24.0566 27.0485 24.0566 27.7227C24.1209 29.3419 26.434 29.3415 26.498 27.7227C26.498 27.0485 25.9515 26.502 25.2773 26.502ZM21.0781 30.6523C20.404 30.6523 19.8574 31.1989 19.8574 31.873C19.9217 33.4923 22.2348 33.4918 22.2988 31.873C22.2988 31.1989 21.7523 30.6523 21.0781 30.6523ZM25.2773 30.6523C24.6032 30.6523 24.0566 31.1989 24.0566 31.873C24.1209 33.4923 26.434 33.4918 26.498 31.873C26.498 31.1989 25.9515 30.6523 25.2773 30.6523ZM22.25 23.5234C22.25 24.1976 21.7035 24.7441 21.0293 24.7441C19.4101 24.6798 19.4105 22.3668 21.0293 22.3027C21.7035 22.3027 22.25 22.8493 22.25 23.5234ZM25.2773 22.3027C24.6032 22.3027 24.0566 22.8493 24.0566 23.5234C24.1209 25.1427 26.434 25.1422 26.498 23.5234C26.498 22.8493 25.9515 22.3027 25.2773 22.3027ZM29.4766 22.3027C28.8024 22.3027 28.2559 22.8493 28.2559 23.5234C28.3202 25.1427 30.6332 25.1422 30.6973 23.5234C30.6973 22.8493 30.1507 22.3027 29.4766 22.3027Z" fill="#0061DF"/>
</svg>
