<svg width="50" height="50" viewBox="0 0 50 50" fill="none" xmlns="http://www.w3.org/2000/svg">
<path d="M34.3938 38C33.8794 38 33.3756 37.8115 32.9701 37.4485L30.5359 35.3065C30.1312 34.9503 30.0918 34.3335 30.448 33.9288C30.8041 33.524 31.421 33.4847 31.8257 33.8408L34.2635 35.9859C34.2662 35.9884 34.269 35.9908 34.2717 35.9932C34.295 36.0141 34.3659 36.078 34.4817 36.0264C34.5975 35.9749 34.5975 35.8794 34.5975 35.8481V18.8571C34.5975 16.704 32.8458 14.9524 30.6928 14.9524H19.8571C17.704 14.9524 15.9524 16.704 15.9524 18.8571V29.6928C15.9524 31.8458 17.704 33.5975 19.8571 33.5975H27.3737C28.6689 33.649 28.668 35.4988 27.3737 35.5499H19.8571C16.6275 35.5499 14 32.9224 14 29.6928V18.8571C14 15.6275 16.6275 13 19.8571 13H30.6928C33.9224 13 36.5499 15.6275 36.5499 18.8571V35.8481C36.5499 36.7083 36.0617 37.46 35.276 37.81C34.9895 37.9375 34.6899 38 34.3938 38V38ZM29.8989 25.8918C29.4441 25.6023 28.8407 25.7364 28.5513 26.1913C26.7777 28.7389 23.7053 28.6432 21.9498 26.1913C21.6603 25.7365 21.057 25.6023 20.6021 25.8918C20.1473 26.1813 20.0132 26.7847 20.3026 27.2395C20.3753 27.3536 22.1657 30.0344 25.2749 30.0344C28.3841 30.0344 30.1258 27.3536 30.1984 27.2395C30.4879 26.7847 30.3538 26.1813 29.8989 25.8918V25.8918ZM29.082 23.3476C28.5429 23.3476 28.1058 22.9105 28.1058 22.3714V19.6869C28.1574 18.3917 30.0071 18.3926 30.0582 19.6869V22.3714C30.0582 22.9105 29.6212 23.3476 29.082 23.3476ZM22.4928 22.3714V19.6869C22.4412 18.3917 20.5915 18.3926 20.5404 19.6869V22.3714C20.5404 22.9105 20.9774 23.3476 21.5166 23.3476C22.0557 23.3476 22.4928 22.9105 22.4928 22.3714Z" fill="#0061DF"/>
</svg>
