<svg width="50" height="50" viewBox="0 0 50 50" fill="none" xmlns="http://www.w3.org/2000/svg">
<path d="M37.3005 15.3104C34.0635 12.23 28.7947 12.23 25.5566 15.3097L24.8833 15.9492L24.2107 15.31C20.9722 12.2299 15.7041 12.2302 12.4657 15.31C10.8756 16.8223 10 18.8284 10 20.958C10 23.0882 10.8756 25.0939 12.4659 26.607L24.1643 37.7131C24.3655 37.9047 24.6246 38 24.8832 38C25.1419 38 25.4006 37.9042 25.6021 37.7128L37.3005 26.607C38.8905 25.0943 39.7664 23.0883 39.7664 20.9583C39.7664 18.8284 38.8905 16.8227 37.3005 15.3104ZM35.8613 25.0925L24.8832 35.5153L13.9055 25.0929C12.734 23.9788 12.0889 22.5103 12.0889 20.9583C12.0889 19.4063 12.734 17.9378 13.9055 16.8237C15.1275 15.6609 16.7324 15.0799 18.3377 15.0799C19.9434 15.0799 21.549 15.6616 22.771 16.8244L24.1636 18.1471C24.5667 18.5304 25.1993 18.5304 25.6025 18.1471L26.9954 16.8237C29.4398 14.4985 33.4166 14.4985 35.8609 16.8237C37.0321 17.9378 37.6776 19.4063 37.6776 20.9583C37.6776 22.5103 37.0321 23.9785 35.8613 25.0925Z" fill="#696969"/>
</svg>
