<svg width="20" height="20" viewBox="0 0 20 20" fill="none" xmlns="http://www.w3.org/2000/svg">
<path d="M4.27391 3.28283H0.58823C0.263319 3.28283 0 3.01934 0 2.6946C0 2.36987 0.263319 2.10637 0.58823 2.10637H4.27391C4.59882 2.10637 4.86214 2.36987 4.86214 2.6946C4.86214 3.01934 4.59882 3.28283 4.27391 3.28283Z" fill="#0061DF"/>
<path d="M6.38012 5.38883C4.89439 5.38883 3.68573 4.18017 3.68573 2.69457C3.68573 1.20866 4.89439 0 6.38012 0C7.86585 0 9.07451 1.20866 9.07451 2.69457C9.07451 4.18021 7.86585 5.38883 6.38012 5.38883ZM6.38012 1.1765C5.54311 1.1765 4.86214 1.8576 4.86214 2.6946C4.86214 3.53161 5.54311 4.21232 6.38012 4.21232C7.21712 4.21232 7.89805 3.53157 7.89805 2.69457C7.89805 1.85756 7.21712 1.1765 6.38012 1.1765Z" fill="#0061DF"/>
<path d="M19.4118 3.28283H10.6201C10.2952 3.28283 10.0319 3.01934 10.0319 2.6946C10.0319 2.36987 10.2952 2.10637 10.6201 2.10637H19.4118C19.7367 2.10637 20 2.36987 20 2.6946C20 3.01934 19.7367 3.28283 19.4118 3.28283Z" fill="#0061DF"/>
<path d="M14.2781 12.497C12.7923 12.497 11.5837 11.2883 11.5837 9.80275C11.5837 8.31715 12.7923 7.10849 14.2781 7.10849C15.7638 7.10849 16.9725 8.31715 16.9725 9.80275C16.9725 11.2883 15.7639 12.497 14.2781 12.497ZM14.2781 8.28499C13.4411 8.28499 12.7601 8.96574 12.7601 9.80275C12.7601 10.6398 13.4411 11.3205 14.2781 11.3205C15.1151 11.3205 15.796 10.6398 15.796 9.80275C15.796 8.96574 15.1151 8.28499 14.2781 8.28499Z" fill="#0061DF"/>
<path d="M10.0382 10.391H0.58823C0.263319 10.391 0 10.1275 0 9.80275C0 9.47801 0.263319 9.21452 0.58823 9.21452H10.0382C10.3631 9.21452 10.6264 9.47801 10.6264 9.80275C10.6264 10.1275 10.3631 10.391 10.0382 10.391Z" fill="#0061DF"/>
<path d="M19.4117 10.391H16.3842C16.0593 10.391 15.796 10.1275 15.796 9.80275C15.796 9.47801 16.0593 9.21452 16.3842 9.21452H19.4117C19.7366 9.21452 20 9.47801 20 9.80275C20 10.1275 19.7366 10.391 19.4117 10.391Z" fill="#0061DF"/>
<path d="M5.72204 19.6054C4.23631 19.6054 3.02765 18.3968 3.02765 16.9109C3.02765 15.4253 4.23631 14.2166 5.72204 14.2166C7.20777 14.2166 8.41643 15.4253 8.41643 16.9109C8.41643 18.3968 7.20777 19.6054 5.72204 19.6054ZM5.72204 15.3931C4.88503 15.3931 4.20411 16.0739 4.20411 16.9109C4.20411 17.7479 4.88503 18.4289 5.72204 18.4289C6.55905 18.4289 7.23997 17.7479 7.23997 16.9109C7.23997 16.0739 6.55905 15.3931 5.72204 15.3931Z" fill="#0061DF"/>
<path d="M19.4118 17.4991H9.96188C9.63697 17.4991 9.37365 17.2357 9.37365 16.9109C9.37365 16.5862 9.63697 16.3227 9.96188 16.3227H19.4118C19.7367 16.3227 20 16.5862 20 16.9109C20 17.2357 19.7367 17.4991 19.4118 17.4991Z" fill="#0061DF"/>
<path d="M3.61581 17.4991H0.58823C0.263319 17.4991 0 17.2356 0 16.9109C0 16.5861 0.263319 16.3226 0.58823 16.3226H3.61581C3.94072 16.3226 4.20411 16.5861 4.20411 16.9109C4.20411 17.2357 3.94072 17.4991 3.61581 17.4991Z" fill="#0061DF"/>
</svg>
