<svg width="50" height="50" viewBox="0 0 50 50" fill="none" xmlns="http://www.w3.org/2000/svg">
<path d="M17.4499 16.1861H12.7501C12.3358 16.1861 12 15.8501 12 15.436C12 15.022 12.3358 14.686 12.7501 14.686H17.4499C17.8642 14.686 18.2 15.022 18.2 15.436C18.2 15.8501 17.8642 16.1861 17.4499 16.1861Z" fill="#0061DF"/>
<path d="M20.1356 18.8716C18.2411 18.8716 16.6999 17.3304 16.6999 15.436C16.6999 13.5412 18.2411 12 20.1356 12C22.0302 12 23.5714 13.5412 23.5714 15.436C23.5714 17.3304 22.0302 18.8716 20.1356 18.8716ZM20.1356 13.5002C19.0683 13.5002 18.2 14.3687 18.2 15.436C18.2 16.5034 19.0683 17.3714 20.1356 17.3714C21.203 17.3714 22.0712 16.5033 22.0712 15.436C22.0712 14.3687 21.203 13.5002 20.1356 13.5002Z" fill="#0061DF"/>
<path d="M36.7531 16.1861H25.5423C25.128 16.1861 24.7922 15.8501 24.7922 15.436C24.7922 15.022 25.128 14.686 25.5423 14.686H36.753C37.1673 14.686 37.5031 15.022 37.5031 15.436C37.5031 15.8501 37.1674 16.1861 36.7531 16.1861Z" fill="#0061DF"/>
<path d="M30.2068 27.9356C28.3122 27.9356 26.771 26.3944 26.771 24.5C26.771 22.6057 28.3122 21.0644 30.2068 21.0644C32.1013 21.0644 33.6425 22.6057 33.6425 24.5C33.6425 26.3944 32.1014 27.9356 30.2068 27.9356ZM30.2068 22.5647C29.1395 22.5647 28.2712 23.4327 28.2712 24.5C28.2712 25.5673 29.1395 26.4354 30.2068 26.4354C31.2741 26.4354 32.1424 25.5673 32.1424 24.5C32.1424 23.4327 31.2741 22.5647 30.2068 22.5647Z" fill="#0061DF"/>
<path d="M24.8002 25.2501H12.7501C12.3358 25.2501 12 24.9141 12 24.5C12 24.0859 12.3358 23.7499 12.7501 23.7499H24.8002C25.2145 23.7499 25.5503 24.0859 25.5503 24.5C25.5503 24.9141 25.2145 25.2501 24.8002 25.2501Z" fill="#0061DF"/>
<path d="M36.753 25.2501H32.8924C32.478 25.2501 32.1424 24.9141 32.1424 24.5C32.1424 24.0859 32.478 23.7499 32.8924 23.7499H36.753C37.1673 23.7499 37.5031 24.0859 37.5031 24.5C37.5031 24.9141 37.1673 25.2501 36.753 25.2501Z" fill="#0061DF"/>
<path d="M19.2965 37C17.402 37 15.8607 35.4588 15.8607 33.564C15.8607 31.6696 17.402 30.1284 19.2965 30.1284C21.191 30.1284 22.7323 31.6696 22.7323 33.564C22.7323 35.4588 21.191 37 19.2965 37ZM19.2965 31.6286C18.2292 31.6286 17.3609 32.4967 17.3609 33.564C17.3609 34.6313 18.2292 35.4998 19.2965 35.4998C20.3638 35.4998 21.2321 34.6313 21.2321 33.564C21.2321 32.4967 20.3638 31.6286 19.2965 31.6286Z" fill="#0061DF"/>
<path d="M36.7531 34.3141H24.703C24.2886 34.3141 23.9529 33.9781 23.9529 33.5641C23.9529 33.15 24.2886 32.814 24.703 32.814H36.7531C37.1674 32.814 37.5032 33.15 37.5032 33.5641C37.5032 33.9781 37.1674 34.3141 36.7531 34.3141Z" fill="#0061DF"/>
<path d="M16.6107 34.3141H12.7501C12.3358 34.3141 12 33.9781 12 33.564C12 33.1499 12.3358 32.8139 12.7501 32.8139H16.6107C17.025 32.8139 17.3609 33.1499 17.3609 33.564C17.3609 33.9782 17.025 34.3141 16.6107 34.3141Z" fill="#0061DF"/>
</svg>
