<svg width="50" height="50" viewBox="0 0 50 50" fill="none" xmlns="http://www.w3.org/2000/svg">
<path d="M23.1625 26.8375C22.7811 26.4562 22.1628 26.4561 21.7814 26.8375L13.9531 34.6658V29.8072C13.9531 29.2679 13.5159 28.8307 12.9766 28.8307C12.4372 28.8307 12 29.2679 12 29.8072V37.0234C12 37.554 12.4323 38 12.9766 38H20.1928C20.7322 38 21.1694 37.5628 21.1694 37.0234C21.1694 36.4841 20.7322 36.0469 20.1928 36.0469H15.3342L23.1625 28.2186C23.5439 27.8372 23.5439 27.2189 23.1625 26.8375Z" fill="#696969"/>
<path d="M36.0237 13H28.8074C28.268 13 27.8308 13.4372 27.8308 13.9766C27.8308 14.5159 28.268 14.9531 28.8074 14.9531H33.666L25.8378 22.7814C25.4564 23.1628 25.4564 23.7811 25.8378 24.1625C26.2191 24.5438 26.8374 24.5439 27.2188 24.1625L35.0471 16.3342V21.1928C35.0471 21.7321 35.4843 22.1693 36.0237 22.1693C36.563 22.1693 37.0002 21.7321 37.0002 21.1928V13.9766C37.0002 13.4451 36.5683 13 36.0237 13Z" fill="#696969"/>
</svg>
