<svg width="60" height="60" viewBox="0 0 60 60" fill="none" xmlns="http://www.w3.org/2000/svg">
<path d="M25.3129 24.1404C21.9077 24.1404 19.4536 26.9899 19.4536 30.4497C19.4536 34.2524 22.3803 36.746 26.8106 40.5205C27.5826 41.1783 28.381 41.8586 29.2288 42.6002C29.4497 42.7935 29.725 42.8902 30.0004 42.8902C30.2758 42.8902 30.551 42.7936 30.7719 42.6002C31.6198 41.8586 32.4182 41.1783 33.1902 40.5205C37.6204 36.746 40.5471 34.2524 40.5471 30.4497C40.5471 26.9895 38.0924 24.1404 34.6878 24.1404C32.36 24.1404 30.8836 25.4695 30.0004 26.753C29.1173 25.4695 27.6407 24.1404 25.3129 24.1404V24.1404ZM31.1305 29.7238C31.1394 29.6915 32.0496 26.4841 34.6878 26.4841C36.692 26.4841 38.2034 28.1889 38.2034 30.4497C38.2034 33.1702 35.7442 35.2654 31.6702 38.7366C31.1296 39.1973 30.5762 39.6687 30.0004 40.1659C29.4245 39.6687 28.8712 39.1972 28.3306 38.7366C24.2565 35.2654 21.7973 33.1702 21.7973 30.4497C21.7973 28.1889 23.3087 26.4841 25.3129 26.4841C27.9175 26.4841 28.8298 29.5813 28.8712 29.7272C29.0119 30.2344 29.4737 30.5856 30.0004 30.5856C30.5282 30.5856 30.9908 30.2328 31.1305 29.7238V29.7238Z" fill="white"/>
<path d="M14.7661 13.1248C15.4133 13.1248 15.938 12.6001 15.938 11.9529C15.938 11.3057 15.4133 10.781 14.7661 10.781C14.1189 10.781 13.5942 11.3057 13.5942 11.9529C13.5942 12.6001 14.1189 13.1248 14.7661 13.1248Z" fill="white"/>
<path d="M52.4742 27.8708C53.296 28.497 54.2774 28.8278 55.3125 28.8278C57.8972 28.8278 59.9999 26.725 59.9999 24.1403C59.9999 22.6639 59.3258 21.3041 58.1547 20.4128L52.2657 15.8869V1.17186C52.2657 0.524759 51.741 0 51.0938 0H44.0626C43.4154 0 42.8908 0.524759 42.8908 1.17186V8.6822L32.8385 0.956942C32.0168 0.330816 31.0354 0 30.0003 0C28.9652 0 27.9838 0.330816 27.1581 0.959872L18.2356 7.81702C17.7225 8.21135 17.6261 8.94716 18.0206 9.4602C18.4149 9.97324 19.1507 10.0697 19.6639 9.67524L28.5823 2.82114C28.9924 2.50884 29.4827 2.34372 30.0003 2.34372C30.5179 2.34372 31.0082 2.50884 31.4144 2.81821L56.7309 22.2744C57.319 22.7219 57.6562 23.4021 57.6562 24.1403C57.6562 25.4327 56.6048 26.4841 55.3125 26.4841C54.7949 26.4841 54.3046 26.3189 53.8988 26.0098C52.586 25.0003 31.7737 8.99321 30.7148 8.17877C30.3085 7.86624 29.7462 7.85405 29.3267 8.14877C29.2736 8.18592 6.10804 26.005 6.10558 26.007C5.63578 26.3654 5.04845 26.5302 4.44939 26.472C3.28901 26.3596 2.65949 25.8139 2.40801 24.702C2.19731 23.7705 2.52766 22.84 3.27401 22.2711L11.3047 16.0995C11.8178 15.7052 11.9141 14.9694 11.5197 14.4563C11.1252 13.9433 10.3894 13.8468 9.8764 14.2413L1.84962 20.41C0.368384 21.5392 -0.293483 23.3819 0.122176 25.2192C0.5976 27.3212 2.05422 28.5947 4.22264 28.8046C5.41149 28.9209 6.58476 28.5891 7.52693 27.8705L7.52517 27.8683C7.57498 27.8316 7.64295 27.7804 7.73505 27.7101V43.7879C5.05372 44.431 2.98023 46.6127 2.48512 49.3751C0.939198 50.4682 0.000771257 52.244 0.000771257 54.1399C0.000771257 57.3707 2.62926 59.9992 5.86008 59.9992H54.1408C57.3716 59.9992 60.0001 57.3707 60.0001 54.1399C60.0001 52.244 59.0616 50.4682 57.5157 49.3751C57.0205 46.6115 54.9456 44.4291 52.2658 43.7874V27.7104L52.4742 27.8708ZM45.2345 2.34372H49.9219V14.0858L45.2345 10.4834V2.34372ZM18.7504 57.6556H5.85996C3.92147 57.6556 2.34438 56.0785 2.34438 54.14C2.34438 52.8879 3.03519 51.7204 4.14717 51.0931C4.48103 50.9048 4.70157 50.5651 4.73802 50.1834C4.96712 47.7773 6.95917 45.937 9.37566 45.937C10.8847 45.937 12.3126 46.6802 13.195 47.9248C13.4715 48.3148 13.9573 48.4978 14.4225 48.387C14.7229 48.3155 14.9886 48.2807 15.235 48.2807C17.1274 48.2807 18.7273 49.8006 18.7503 51.7549C18.6505 52.4594 19.0271 52.9412 19.5158 53.1114C20.4228 53.4274 21.0943 54.285 21.0943 55.3117C21.0942 56.6042 20.0428 57.6556 18.7504 57.6556V57.6556ZM38.9318 51.2521C38.2074 51.6619 37.6095 52.2528 37.1944 52.9682H22.8059C22.3905 52.2526 21.7928 51.6617 21.0688 51.2521C21.0492 51.041 21.018 50.8316 20.9758 50.6233H39.0249C38.9827 50.8315 38.9516 51.041 38.9318 51.2521V51.2521ZM22.8088 57.6556C23.2088 56.9657 23.4379 56.165 23.4379 55.3118H36.5627C36.5627 56.165 36.7919 56.9657 37.1918 57.6556H22.8088ZM55.2627 50.1834C55.299 50.5651 55.5197 50.9047 55.8535 51.0931C56.9655 51.7204 57.6563 52.8879 57.6563 54.14C57.6563 56.0785 56.0792 57.6556 54.1408 57.6556H41.2503C39.958 57.6556 38.9066 56.6042 38.9066 55.3118C38.9066 54.2839 39.5792 53.427 40.4851 53.1116C40.9779 52.9399 41.3498 52.4554 41.2505 51.755C41.2735 49.8056 42.8689 48.2808 44.7659 48.2808C45.0122 48.2808 45.278 48.3156 45.5783 48.3871C46.0432 48.4977 46.5293 48.315 46.8058 47.9249C47.6884 46.6803 49.1162 45.9371 50.6252 45.9371C53.0407 45.937 55.0334 47.7751 55.2627 50.1834V50.1834ZM49.9219 43.6302C48.1706 43.8086 46.5404 44.6466 45.3674 45.9721C45.1627 45.9487 44.963 45.937 44.7657 45.937C42.9169 45.937 41.1801 46.8205 40.0808 48.2807H19.9199C18.8211 46.8209 17.0839 45.937 15.2348 45.937C15.0375 45.937 14.8378 45.9487 14.6332 45.9721C13.4602 44.6465 11.8301 43.8086 10.0787 43.6302V25.9082C11.7797 24.5998 28.0428 12.0911 30.0002 10.586L49.9219 25.908V43.6302Z" fill="white"/>
</svg>
