<svg width="50" height="50" viewBox="0 0 50 50" fill="none" xmlns="http://www.w3.org/2000/svg">
<path d="M22.547 23.0585C21.1282 23.0585 20.1056 24.2458 20.1056 25.6873C20.1056 27.2718 21.3251 28.3108 23.171 29.8835C23.4927 30.1576 23.8254 30.441 24.1786 30.7501C24.2707 30.8306 24.3854 30.8709 24.5001 30.8709C24.6149 30.8709 24.7296 30.8306 24.8216 30.7501C25.1749 30.441 25.5075 30.1576 25.8292 29.8835C27.6751 28.3108 28.8946 27.2718 28.8946 25.6873C28.8946 24.2456 27.8718 23.0585 26.4532 23.0585C25.4833 23.0585 24.8681 23.6123 24.5001 24.1471C24.1322 23.6123 23.5169 23.0585 22.547 23.0585ZM24.971 25.3849C24.9747 25.3714 25.354 24.035 26.4532 24.035C27.2883 24.035 27.918 24.7454 27.918 25.6873C27.918 26.8209 26.8934 27.6939 25.1959 29.1402C24.9706 29.3322 24.7401 29.5286 24.5001 29.7358C24.2602 29.5286 24.0296 29.3321 23.8044 29.1402C22.1068 27.6939 21.0822 26.8209 21.0822 25.6873C21.0822 24.7454 21.7119 24.035 22.547 24.035C23.6323 24.035 24.0124 25.3255 24.0296 25.3863C24.0883 25.5977 24.2807 25.744 24.5001 25.744C24.72 25.744 24.9128 25.597 24.971 25.3849Z" fill="white"/>
<path d="M18.1525 18.4687C18.4222 18.4687 18.6408 18.25 18.6408 17.9804C18.6408 17.7107 18.4222 17.4921 18.1525 17.4921C17.8829 17.4921 17.6643 17.7107 17.6643 17.9804C17.6643 18.25 17.8829 18.4687 18.1525 18.4687Z" fill="white"/>
<path d="M33.8643 24.6128C34.2066 24.8737 34.6156 25.0116 35.0469 25.0116C36.1238 25.0116 37 24.1354 37 23.0585C37 22.4433 36.719 21.8767 36.2311 21.5053L33.7773 19.6195V13.4883C33.7773 13.2186 33.5587 13 33.2891 13H30.3594C30.0897 13 29.8711 13.2186 29.8711 13.4883V16.6176L25.6827 13.3987C25.3403 13.1378 24.9314 13 24.5001 13C24.0688 13 23.6599 13.1378 23.3158 13.3999L19.5982 16.2571C19.3844 16.4214 19.3442 16.728 19.5086 16.9417C19.6729 17.1555 19.9795 17.1957 20.1933 17.0313L23.9093 14.1755C24.0801 14.0453 24.2844 13.9766 24.5001 13.9766C24.7158 13.9766 24.9201 14.0453 25.0893 14.1743L35.6379 22.281C35.8829 22.4675 36.0234 22.7509 36.0234 23.0585C36.0234 23.5969 35.5853 24.035 35.0469 24.035C34.8312 24.035 34.6269 23.9662 34.4578 23.8374C33.9108 23.4168 25.239 16.7472 24.7978 16.4078C24.6285 16.2776 24.3943 16.2725 24.2195 16.3953C24.1973 16.4108 14.545 23.8354 14.544 23.8362C14.3482 23.9856 14.1035 24.0543 13.8539 24.03C13.3704 23.9832 13.1081 23.7558 13.0033 23.2925C12.9155 22.9044 13.0532 22.5167 13.3642 22.2796L16.7103 19.7081C16.9241 19.5438 16.9642 19.2372 16.7999 19.0235C16.6355 18.8097 16.3289 18.7695 16.1152 18.9339L12.7707 21.5041C12.1535 21.9746 11.8777 22.7425 12.0509 23.508C12.249 24.3838 12.8559 24.9144 13.7594 25.0019C14.2548 25.0504 14.7436 24.9121 15.1362 24.6127L15.1355 24.6118C15.1562 24.5965 15.1846 24.5751 15.2229 24.5458V31.2449C14.1057 31.5129 13.2418 32.4219 13.0355 33.5729C12.3913 34.0284 12.0003 34.7683 12.0003 35.5583C12.0003 36.9044 13.0955 37.9996 14.4417 37.9996H34.5586C35.9048 37.9996 37 36.9044 37 35.5583C37 34.7683 36.609 34.0284 35.9649 33.5729C35.7585 32.4214 34.894 31.5121 33.7774 31.2447V24.546L33.8643 24.6128ZM30.8477 13.9766H32.8008V18.8691L30.8477 17.3681V13.9766ZM19.8127 37.0231H14.4416C13.6339 37.0231 12.9768 36.366 12.9768 35.5583C12.9768 35.0366 13.2647 34.5502 13.728 34.2888C13.8671 34.2103 13.959 34.0688 13.9742 33.9097C14.0696 32.9072 14.8996 32.1404 15.9065 32.1404C16.5353 32.1404 17.1302 32.45 17.4979 32.9686C17.6131 33.1311 17.8155 33.2074 18.0094 33.1612C18.1345 33.1314 18.2453 33.1169 18.3479 33.1169C19.1364 33.1169 19.8031 33.7502 19.8126 34.5645C19.771 34.8581 19.928 35.0588 20.1316 35.1297C20.5095 35.2614 20.7893 35.6187 20.7893 36.0465C20.7892 36.5851 20.3511 37.0231 19.8127 37.0231ZM28.2215 34.355C27.9197 34.5258 27.6706 34.772 27.4976 35.0701H21.5024C21.3294 34.7719 21.0803 34.5257 20.7787 34.355C20.7705 34.2671 20.7575 34.1798 20.7399 34.093H28.2604C28.2428 34.1798 28.2298 34.2671 28.2215 34.355ZM21.5037 37.0231C21.6703 36.7357 21.7658 36.402 21.7658 36.0466H27.2345C27.2345 36.402 27.33 36.7357 27.4966 37.0231H21.5037ZM35.0261 33.9097C35.0412 34.0688 35.1332 34.2103 35.2723 34.2888C35.7356 34.5502 36.0234 35.0366 36.0234 35.5583C36.0234 36.366 35.3663 37.0231 34.5586 37.0231H29.1876C28.6491 37.0231 28.211 36.5851 28.211 36.0466C28.211 35.6183 28.4913 35.2612 28.8688 35.1298C29.0741 35.0583 29.2291 34.8564 29.1877 34.5646C29.1973 33.7523 29.862 33.117 30.6524 33.117C30.7551 33.117 30.8658 33.1315 30.9909 33.1613C31.1846 33.2074 31.3872 33.1312 31.5024 32.9687C31.8701 32.4501 32.465 32.1404 33.0938 32.1404C34.1003 32.1404 34.9305 32.9063 35.0261 33.9097ZM32.8008 31.1792C32.0711 31.2536 31.3918 31.6027 30.9031 32.155C30.8178 32.1453 30.7346 32.1404 30.6524 32.1404C29.882 32.1404 29.1584 32.5085 28.7003 33.1169H20.3C19.8421 32.5087 19.1183 32.1404 18.3478 32.1404C18.2656 32.1404 18.1824 32.1453 18.0972 32.155C17.6084 31.6027 16.9292 31.2536 16.1994 31.1792V23.7951C16.9082 23.2499 23.6845 18.038 24.5001 17.4108L32.8008 23.795V31.1792Z" fill="white"/>
</svg>
