<svg width="50" height="50" viewBox="0 0 50 50" fill="none" xmlns="http://www.w3.org/2000/svg">
<path d="M31.1434 37H17.8602C14.6289 37 12 34.3711 12 31.1398V22.9222C12 21.106 12.8622 19.3641 14.3063 18.2626L20.9479 13.197C23.0404 11.601 25.9632 11.601 28.0557 13.197L30.1667 14.8056V13.5591C30.2183 12.2632 32.069 12.2642 32.1201 13.5591V16.7779C32.1201 17.1492 31.9096 17.4883 31.5768 17.6532C31.2441 17.8179 30.8467 17.7797 30.5514 17.5547L26.8714 14.7505C25.4761 13.6863 23.5275 13.6863 22.1325 14.7502L15.4909 19.8159C14.5282 20.5501 13.9534 21.7114 13.9534 22.9222V31.1398C13.9534 33.294 15.706 35.0466 17.8602 35.0466H31.1434C33.2976 35.0466 35.0502 33.294 35.0502 31.1398V22.9222C35.0502 21.6965 34.4819 20.5313 33.53 19.8052C33.1011 19.4781 33.0186 18.8652 33.3458 18.4363C33.6729 18.0074 34.2858 17.9249 34.7147 18.2521C36.1479 19.3452 37.0036 21.0911 37.0036 22.9222V31.1398C37.0036 34.3711 34.3747 37 31.1434 37V37ZM22.5484 23.2773C21.8741 23.2773 21.3275 23.8239 21.3275 24.4982C21.392 26.1181 23.7054 26.1168 23.7693 24.4982C23.7693 23.8239 23.2227 23.2773 22.5484 23.2773ZM27.6761 24.4981C27.6116 26.118 25.2983 26.1168 25.2343 24.4981C25.2989 22.8783 27.6122 22.8795 27.6761 24.4981ZM23.7693 28.405C23.7048 30.0248 21.3914 30.0236 21.3275 28.405C21.392 26.7851 23.7054 26.7864 23.7693 28.405ZM27.6761 28.405C27.6116 30.0248 25.2983 30.0236 25.2343 28.405C25.2989 26.7851 27.6122 26.7864 27.6761 28.405Z" fill="#0061DF"/>
</svg>
