<svg width="50" height="50" viewBox="0 0 50 50" fill="none" xmlns="http://www.w3.org/2000/svg">
<path d="M17.5928 37V20.2774H12.3915V37H17.5928ZM14.9642 18.0403C16.6421 18.0403 17.9843 16.6421 17.9843 14.9642C17.9843 13.3423 16.6421 12 14.9642 12C13.3423 12 12 13.3423 12 14.9642C12 16.6421 13.3423 18.0403 14.9642 18.0403ZM37.0559 37V27.8277C37.0559 23.3535 36.0492 19.8859 30.7919 19.8859C28.2752 19.8859 26.5973 21.2841 25.8702 22.5705H25.8143V20.2774H20.8367V37H26.038V28.7226C26.038 26.5414 26.4295 24.472 29.1141 24.472C31.7987 24.472 31.8546 26.9329 31.8546 28.8904V37H37.0559Z" fill="white"/>
</svg>
