<svg width="50" height="50" viewBox="0 0 50 50" fill="none" xmlns="http://www.w3.org/2000/svg">
<path d="M24.5279 18.0547C20.9565 18.0547 18.1105 20.9565 18.1105 24.4721C18.1105 28.0435 20.9565 30.8895 24.5279 30.8895C28.0435 30.8895 30.9453 28.0435 30.9453 24.4721C30.9453 20.9565 28.0435 18.0547 24.5279 18.0547ZM24.5279 28.6574C22.24 28.6574 20.3426 26.8158 20.3426 24.4721C20.3426 22.1842 22.1842 20.3426 24.5279 20.3426C26.8158 20.3426 28.6574 22.1842 28.6574 24.4721C28.6574 26.8158 26.8158 28.6574 24.5279 28.6574ZM32.6752 17.8315C32.6752 16.9944 32.0056 16.3248 31.1685 16.3248C30.3315 16.3248 29.6618 16.9944 29.6618 17.8315C29.6618 18.6685 30.3315 19.3382 31.1685 19.3382C32.0056 19.3382 32.6752 18.6685 32.6752 17.8315ZM36.9163 19.3382C36.8047 17.3292 36.3583 15.5435 34.9074 14.0926C33.4565 12.6417 31.6708 12.1953 29.6618 12.0837C27.5971 11.9721 21.4029 11.9721 19.3382 12.0837C17.3292 12.1953 15.5993 12.6417 14.0926 14.0926C12.6417 15.5435 12.1953 17.3292 12.0837 19.3382C11.9721 21.4029 11.9721 27.5971 12.0837 29.6618C12.1953 31.6708 12.6417 33.4007 14.0926 34.9074C15.5993 36.3583 17.3292 36.8047 19.3382 36.9163C21.4029 37.0279 27.5971 37.0279 29.6618 36.9163C31.6708 36.8047 33.4565 36.3583 34.9074 34.9074C36.3583 33.4007 36.8047 31.6708 36.9163 29.6618C37.0279 27.5971 37.0279 21.4029 36.9163 19.3382ZM34.2377 31.8382C33.8471 32.9542 32.9542 33.7913 31.894 34.2377C30.2199 34.9074 26.3136 34.74 24.5279 34.74C22.6864 34.74 18.7801 34.9074 17.1618 34.2377C16.0458 33.7913 15.2087 32.9542 14.7623 31.8382C14.0926 30.2199 14.26 26.3136 14.26 24.4721C14.26 22.6864 14.0926 18.7801 14.7623 17.106C15.2087 16.0458 16.0458 15.2087 17.1618 14.7623C18.7801 14.0926 22.6864 14.26 24.5279 14.26C26.3136 14.26 30.2199 14.0926 31.894 14.7623C32.9542 15.1529 33.7913 16.0458 34.2377 17.106C34.9074 18.7801 34.74 22.6864 34.74 24.4721C34.74 26.3136 34.9074 30.2199 34.2377 31.8382Z" fill="white"/>
</svg>
