<svg width="50" height="50" viewBox="0 0 50 50" fill="none" xmlns="http://www.w3.org/2000/svg">
<path d="M25.0154 18.3738C22.4562 18.3738 20.3741 20.4559 20.3741 23.0151C20.3741 25.5742 22.4562 27.6563 25.0154 27.6563C27.5746 27.6563 29.6567 25.5742 29.6567 23.0151C29.6567 20.4559 27.5746 18.3738 25.0154 18.3738ZM25.0154 25.7021C23.5338 25.7021 22.3283 24.4967 22.3283 23.0151C22.3283 21.5334 23.5338 20.328 25.0154 20.328C26.497 20.328 27.7025 21.5334 27.7025 23.0151C27.7025 24.4967 26.497 25.7021 25.0154 25.7021Z" fill="white"/>
<path d="M25.0154 13C19.4929 13 15 17.4929 15 23.0154V23.2922C15 26.0852 16.6013 29.3399 19.7595 32.9657C22.0489 35.5942 24.3064 37.4271 24.4013 37.5038L25.0154 38L25.6294 37.5039C25.7244 37.4271 27.9819 35.5943 30.2713 32.9658C33.4294 29.3399 35.0308 26.0853 35.0308 23.2923V23.0154C35.0308 17.4929 30.5379 13 25.0154 13ZM33.0766 23.2923C33.0766 28.0123 26.995 33.7259 25.0154 35.4604C23.0353 33.7253 16.9542 28.0119 16.9542 23.2923V23.0154C16.9542 18.5705 20.5705 14.9542 25.0154 14.9542C29.4603 14.9542 33.0766 18.5705 33.0766 23.0154V23.2923Z" fill="white"/>
</svg>
