<svg width="50" height="50" viewBox="0 0 50 50" fill="none" xmlns="http://www.w3.org/2000/svg">
<path d="M23.0094 12C16.939 12 12 16.939 12 23.0094C12 29.0802 16.939 34.0189 23.0094 34.0189C29.0802 34.0189 34.0189 29.0802 34.0189 23.0094C34.0189 16.939 29.0802 12 23.0094 12ZM23.0094 31.9864C18.0596 31.9864 14.0325 27.9593 14.0325 23.0095C14.0325 18.0597 18.0596 14.0325 23.0094 14.0325C27.9593 14.0325 31.9864 18.0596 31.9864 23.0094C31.9864 27.9593 27.9593 31.9864 23.0094 31.9864Z" fill="white"/>
<path d="M36.7023 35.2652L30.8757 29.4387C30.4787 29.0417 29.8357 29.0417 29.4387 29.4387C29.0417 29.8354 29.0417 30.479 29.4387 30.8757L35.2652 36.7022C35.4637 36.9007 35.7236 37 35.9837 37C36.2436 37 36.5037 36.9007 36.7023 36.7022C37.0993 36.3056 37.0993 35.6619 36.7023 35.2652Z" fill="white"/>
</svg>
