<svg width="50" height="50" viewBox="0 0 50 50" fill="none" xmlns="http://www.w3.org/2000/svg">
<path d="M34.0703 16H14.9297C13.3143 16 12 17.3143 12 18.9297V31.4297C12 33.0451 13.3143 34.3594 14.9297 34.3594H34.0703C35.6857 34.3594 37 33.0451 37 31.4297V18.9297C37 17.3143 35.6857 16 34.0703 16ZM35.0469 31.4297C35.0469 31.9682 34.6088 32.4062 34.0703 32.4062H14.9297C14.3912 32.4062 13.9531 31.9682 13.9531 31.4297V18.9297C13.9531 18.3912 14.3912 17.9531 14.9297 17.9531H34.0703C34.6088 17.9531 35.0469 18.3912 35.0469 18.9297V31.4297Z" fill="white"/>
<path d="M34.881 17.2173L24.4999 24.9388L14.1189 17.2173L12.9532 18.7844L24.4999 27.373L36.0467 18.7844L34.881 17.2173Z" fill="white"/>
</svg>
