<svg width="50" height="50" viewBox="0 0 50 50" fill="none" xmlns="http://www.w3.org/2000/svg">
<path d="M25.4531 38H16.8594C13.6285 38 11 35.3714 11 32.1406V18.8594C11 15.6285 13.6285 13 16.8594 13H30.1406C33.3714 13 36 15.6285 36 18.8594V23.791C35.9484 25.0867 34.098 25.0857 34.0468 23.791V18.8594C34.0468 16.7055 32.2945 14.9531 30.1406 14.9531H16.8594C14.7055 14.9531 12.9531 16.7055 12.9531 18.8594V32.1406C12.9531 34.2945 14.7055 36.0468 16.8594 36.0468H25.4531C26.7488 36.0984 26.7478 37.9488 25.4531 38ZM24.2417 21.5983L27.2667 18.5733C27.6481 18.1919 27.648 17.5736 27.2666 17.1923C26.8853 16.8109 26.2669 16.8109 25.8856 17.1923L22.8606 20.2173C22.6757 20.4022 22.4293 20.5022 22.1682 20.5033C21.9067 20.5028 21.6612 20.4003 21.4769 20.2146L18.4803 17.195C18.1003 16.8121 17.482 16.8098 17.0992 17.1897C16.7164 17.5696 16.714 18.1879 17.0939 18.5707L20.0906 21.5904C20.6433 22.1473 21.3798 22.4549 22.1645 22.4564H22.1703C22.9527 22.4564 23.6882 22.1518 24.2417 21.5983V21.5983ZM16.627 29.213L18.7246 27.0857C19.8469 25.9475 19.8437 24.0987 18.7174 22.9644L16.6246 20.8568C16.2445 20.4742 15.6263 20.472 15.2435 20.8519C14.8608 21.232 14.8586 21.8503 15.2386 22.233L17.3314 24.3406C17.7069 24.7187 17.7079 25.335 17.3338 25.7144L15.2362 27.8416C14.8576 28.2257 14.8619 28.844 15.2459 29.2227C15.4362 29.4103 15.6839 29.5039 15.9316 29.5039C16.1838 29.5039 16.4359 29.4068 16.627 29.213V29.213ZM32.8639 37.0102C34.9773 34.3275 36.0488 32.281 36.0488 30.9277C36.0488 28.0425 33.705 25.6953 30.8242 25.6953C27.9433 25.6953 25.5996 28.0425 25.5996 30.9277C25.5996 32.2811 26.6711 34.3275 28.7845 37.0103C29.28 37.6393 30.0235 38 30.8242 38C31.6249 38 32.3684 37.6392 32.8639 37.0102V37.0102ZM32.0967 36.4059H32.0972H32.0967ZM34.0957 30.9277C34.0957 31.5864 33.369 33.2128 31.3296 35.8016C31.0633 36.1311 30.5856 36.1316 30.3188 35.8016C28.2794 33.2128 27.5527 31.5864 27.5527 30.9277C27.5527 29.1195 29.0203 27.6484 30.8242 27.6484C32.6281 27.6484 34.0957 29.1195 34.0957 30.9277V30.9277ZM16.9082 34.0937C16.0507 34.0989 15.6019 33.0386 16.2177 32.4266L30.4266 18.2177C30.808 17.8363 31.4264 17.8363 31.8077 18.2177C32.1891 18.5991 32.1891 19.2174 31.8077 19.5987L17.5988 33.8077C17.408 33.9983 17.1581 34.0937 16.9082 34.0937V34.0937ZM29.6035 30.8222C29.6035 31.4964 30.15 32.0429 30.8242 32.0429C32.4434 31.9786 32.443 29.6656 30.8242 29.6015C30.15 29.6015 29.6035 30.1481 29.6035 30.8222Z" fill="#0061DF"/>
</svg>
