<svg width="60" height="60" viewBox="0 0 60 60" fill="none" xmlns="http://www.w3.org/2000/svg">
<path d="M35 22.2737L57.025 26.6487C58.8 27.0237 60 28.5237 60 30.2987V55.7987C60 57.8737 58.325 59.5487 56.25 59.5487H33.75C34.45 59.5487 35 58.9987 35 58.2987V57.0487H56.25C56.925 57.0487 57.5 56.4987 57.5 55.7987V30.2987C57.5 29.7237 57.1 29.1987 56.525 29.0737L35 24.8237V22.2737Z" fill="white"/>
<path d="M48.75 34.5486C49.45 34.5486 50 35.0986 50 35.7986C50 36.4986 49.45 37.0486 48.75 37.0486H43.75C43.05 37.0486 42.5 36.4986 42.5 35.7986C42.5 35.0986 43.05 34.5486 43.75 34.5486H48.75Z" fill="white"/>
<path d="M48.75 42.0486C49.45 42.0486 50 42.5986 50 43.2986C50 43.9986 49.45 44.5486 48.75 44.5486H43.75C43.05 44.5486 42.5 43.9986 42.5 43.2986C42.5 42.5986 43.05 42.0486 43.75 42.0486H48.75Z" fill="white"/>
<path d="M48.75 49.5486C49.45 49.5486 50 50.0986 50 50.7986C50 51.4986 49.45 52.0486 48.75 52.0486H43.75C43.05 52.0486 42.5 51.4986 42.5 50.7986C42.5 50.0986 43.05 49.5486 43.75 49.5486H48.75Z" fill="white"/>
<path d="M35 58.2987C35 58.9987 34.45 59.5487 33.75 59.5487C33.05 59.5487 32.5 58.9987 32.5 58.2987V57.0487V23.2987C32.5 22.9237 32.675 22.5737 32.95 22.3237C33.25 22.0987 33.625 21.9987 34 22.0737L35 22.2737V24.8237V57.0487V58.2987Z" fill="white"/>
<path d="M32.5 57.0486V58.2986C32.5 58.9986 33.05 59.5486 33.75 59.5486H23.75C24.45 59.5486 25 58.9986 25 58.2986V57.0486H32.5Z" fill="white"/>
<path d="M26.25 12.0486C26.95 12.0486 27.5 12.5986 27.5 13.2986C27.5 13.9986 26.95 14.5486 26.25 14.5486H21.25C20.55 14.5486 20 13.9986 20 13.2986C20 12.5986 20.55 12.0486 21.25 12.0486H26.25Z" fill="white"/>
<path d="M27.5 20.7986C27.5 21.4986 26.95 22.0486 26.25 22.0486H21.25C20.55 22.0486 20 21.4986 20 20.7986C20 20.0986 20.55 19.5486 21.25 19.5486H26.25C26.95 19.5486 27.5 20.0986 27.5 20.7986Z" fill="white"/>
<path d="M26.25 27.0486C26.95 27.0486 27.5 27.5986 27.5 28.2986C27.5 28.9986 26.95 29.5486 26.25 29.5486H21.25C20.55 29.5486 20 28.9986 20 28.2986C20 27.5986 20.55 27.0486 21.25 27.0486H26.25Z" fill="white"/>
<path d="M26.25 34.5486C26.95 34.5486 27.5 35.0986 27.5 35.7986C27.5 36.4986 26.95 37.0486 26.25 37.0486H21.25C20.55 37.0486 20 36.4986 20 35.7986C20 35.0986 20.55 34.5486 21.25 34.5486H26.25Z" fill="white"/>
<path d="M15 35.7986C15 36.4986 14.45 37.0486 13.75 37.0486H8.75C8.05 37.0486 7.5 36.4986 7.5 35.7986C7.5 35.0986 8.05 34.5486 8.75 34.5486H13.75C14.45 34.5486 15 35.0986 15 35.7986Z" fill="white"/>
<path d="M13.75 12.0486C14.45 12.0486 15 12.5986 15 13.2986C15 13.9986 14.45 14.5486 13.75 14.5486H8.75C8.05 14.5486 7.5 13.9986 7.5 13.2986C7.5 12.5986 8.05 12.0486 8.75 12.0486H13.75Z" fill="white"/>
<path d="M13.75 19.5486C14.45 19.5486 15 20.0986 15 20.7986C15 21.4986 14.45 22.0486 13.75 22.0486H8.75C8.05 22.0486 7.5 21.4986 7.5 20.7986C7.5 20.0986 8.05 19.5486 8.75 19.5486H13.75Z" fill="white"/>
<path d="M13.75 27.0486C14.45 27.0486 15 27.5986 15 28.2986C15 28.9986 14.45 29.5486 13.75 29.5486H8.75C8.05 29.5486 7.5 28.9986 7.5 28.2986C7.5 27.5986 8.05 27.0486 8.75 27.0486H13.75Z" fill="white"/>
<path d="M22.5 45.7986C22.5 45.0986 21.925 44.5486 21.25 44.5486H13.75C13.05 44.5486 12.5 45.0986 12.5 45.7986V57.0486H10V45.7986C10 43.7236 11.675 42.0486 13.75 42.0486H21.25C23.325 42.0486 25 43.7236 25 45.7986V57.0486H22.5V45.7986Z" fill="white"/>
<path d="M12.5 57.0486H22.5H25V58.2986C25 58.9986 24.45 59.5486 23.75 59.5486H11.25C10.55 59.5486 10 58.9986 10 58.2986V57.0486H12.5Z" fill="white"/>
<path d="M4.375 0.0486724L31.85 4.22367C33.675 4.52367 35 6.07367 35 7.92367V22.2737L34 22.0737C33.625 21.9987 33.25 22.0987 32.95 22.3237C32.675 22.5737 32.5 22.9237 32.5 23.2987V7.92367C32.5 7.29867 32.05 6.77367 31.45 6.67367L3.975 2.52367C3.9 2.49867 3.825 2.49867 3.75 2.49867C3.45 2.49867 3.175 2.59867 2.95 2.79867C2.65 3.04867 2.5 3.37367 2.5 3.74867V55.7987C2.5 56.4987 3.075 57.0487 3.75 57.0487H10V58.2987C10 58.9987 10.55 59.5487 11.25 59.5487H3.75C1.675 59.5487 0 57.8737 0 55.7987V3.74867C0 2.64867 0.475 1.59867 1.325 0.898672C2.175 0.173673 3.275 -0.126328 4.375 0.0486724V0.0486724Z" fill="white"/>
</svg>
