<svg width="50" height="50" viewBox="0 0 50 50" fill="none" xmlns="http://www.w3.org/2000/svg">
<path d="M28.6939 22.351L37.9405 24.1877C38.6857 24.3452 39.1895 24.9749 39.1895 25.7201V36.4256C39.1895 37.2968 38.4863 38 37.6151 38H28.1691C28.463 38 28.6939 37.7691 28.6939 37.4752V36.9504H37.6151C37.8985 36.9504 38.1399 36.7195 38.1399 36.4256V25.7201C38.1399 25.4787 37.972 25.2583 37.7306 25.2058L28.6939 23.4216V22.351Z" fill="white"/>
<path d="M34.4665 27.5044C34.7603 27.5044 34.9912 27.7353 34.9912 28.0292C34.9912 28.323 34.7603 28.5539 34.4665 28.5539H32.3673C32.0735 28.5539 31.8425 28.323 31.8425 28.0292C31.8425 27.7353 32.0735 27.5044 32.3673 27.5044H34.4665Z" fill="white"/>
<path d="M34.4665 30.6531C34.7603 30.6531 34.9912 30.884 34.9912 31.1778C34.9912 31.4717 34.7603 31.7026 34.4665 31.7026H32.3673C32.0735 31.7026 31.8425 31.4717 31.8425 31.1778C31.8425 30.884 32.0735 30.6531 32.3673 30.6531H34.4665Z" fill="white"/>
<path d="M34.4665 33.8018C34.7603 33.8018 34.9912 34.0327 34.9912 34.3265C34.9912 34.6204 34.7603 34.8513 34.4665 34.8513H32.3673C32.0735 34.8513 31.8425 34.6204 31.8425 34.3265C31.8425 34.0327 32.0735 33.8018 32.3673 33.8018H34.4665Z" fill="white"/>
<path d="M28.6939 37.4752C28.6939 37.7691 28.463 38 28.1691 38C27.8752 38 27.6443 37.7691 27.6443 37.4752V36.9504V22.7813C27.6443 22.6239 27.7178 22.477 27.8332 22.372C27.9592 22.2775 28.1166 22.2356 28.274 22.267L28.6939 22.351V23.4216V36.9504V37.4752Z" fill="white"/>
<path d="M27.6443 36.9504V37.4752C27.6443 37.7691 27.8752 38 28.1691 38L23.9708 38C24.2647 38 24.4956 37.7691 24.4956 37.4752V36.9504L27.6443 36.9504Z" fill="white"/>
<path d="M25.0204 18.0583C25.3143 18.0583 25.5452 18.2892 25.5452 18.5831C25.5452 18.877 25.3143 19.1079 25.0204 19.1079H22.9213C22.6274 19.1079 22.3965 18.877 22.3965 18.5831C22.3965 18.2892 22.6274 18.0583 22.9213 18.0583H25.0204Z" fill="white"/>
<path d="M25.5452 21.7318C25.5452 22.0257 25.3143 22.2566 25.0204 22.2566H22.9213C22.6274 22.2566 22.3965 22.0257 22.3965 21.7318C22.3965 21.4379 22.6274 21.207 22.9213 21.207H25.0204C25.3143 21.207 25.5452 21.4379 25.5452 21.7318Z" fill="white"/>
<path d="M25.0204 24.3557C25.3143 24.3557 25.5452 24.5866 25.5452 24.8805C25.5452 25.1744 25.3143 25.4053 25.0204 25.4053H22.9213C22.6274 25.4053 22.3965 25.1744 22.3965 24.8805C22.3965 24.5866 22.6274 24.3557 22.9213 24.3557H25.0204Z" fill="white"/>
<path d="M25.0204 27.5044C25.3143 27.5044 25.5452 27.7353 25.5452 28.0292C25.5452 28.323 25.3143 28.5539 25.0204 28.5539H22.9213C22.6274 28.5539 22.3965 28.323 22.3965 28.0292C22.3965 27.7353 22.6274 27.5044 22.9213 27.5044H25.0204Z" fill="white"/>
<path d="M20.2974 28.0292C20.2974 28.323 20.0665 28.5539 19.7726 28.5539H17.6735C17.3796 28.5539 17.1487 28.323 17.1487 28.0292C17.1487 27.7353 17.3796 27.5044 17.6735 27.5044H19.7726C20.0665 27.5044 20.2974 27.7353 20.2974 28.0292Z" fill="white"/>
<path d="M19.7726 18.0583C20.0665 18.0583 20.2974 18.2892 20.2974 18.5831C20.2974 18.877 20.0665 19.1079 19.7726 19.1079H17.6735C17.3796 19.1079 17.1487 18.877 17.1487 18.5831C17.1487 18.2892 17.3796 18.0583 17.6735 18.0583H19.7726Z" fill="white"/>
<path d="M19.7726 21.207C20.0665 21.207 20.2974 21.4379 20.2974 21.7318C20.2974 22.0257 20.0665 22.2566 19.7726 22.2566H17.6735C17.3796 22.2566 17.1487 22.0257 17.1487 21.7318C17.1487 21.4379 17.3796 21.207 17.6735 21.207H19.7726Z" fill="white"/>
<path d="M19.7726 24.3557C20.0665 24.3557 20.2974 24.5866 20.2974 24.8805C20.2974 25.1744 20.0665 25.4053 19.7726 25.4053H17.6735C17.3796 25.4053 17.1487 25.1744 17.1487 24.8805C17.1487 24.5866 17.3796 24.3557 17.6735 24.3557H19.7726Z" fill="white"/>
<path d="M23.446 32.2274C23.446 31.9335 23.2046 31.7026 22.9213 31.7026H19.7726C19.4787 31.7026 19.2478 31.9335 19.2478 32.2274V36.9504H18.1982V32.2274C18.1982 31.3563 18.9014 30.6531 19.7726 30.6531H22.9213C23.7924 30.6531 24.4956 31.3563 24.4956 32.2274L24.4956 36.9504L23.446 36.9504V32.2274Z" fill="white"/>
<path d="M19.2478 36.9504H23.446L24.4956 36.9504V37.4752C24.4956 37.7691 24.2647 38 23.9708 38H18.723C18.4291 38 18.1982 37.7691 18.1982 37.4752V36.9504H19.2478Z" fill="white"/>
<path d="M15.8367 13.0204L27.3714 14.7732C28.1376 14.8991 28.6939 15.5499 28.6939 16.3266V22.351L28.274 22.267C28.1166 22.2356 27.9592 22.2775 27.8332 22.372C27.7178 22.477 27.6443 22.6239 27.6443 22.7813V16.3266C27.6443 16.0642 27.4554 15.8438 27.2035 15.8018L15.6688 14.0595C15.6373 14.049 15.6058 14.049 15.5743 14.049C15.4484 14.049 15.3329 14.091 15.2385 14.175C15.1125 14.2799 15.0496 14.4164 15.0496 14.5738V36.4256C15.0496 36.7195 15.291 36.9504 15.5743 36.9504L18.1982 36.9504V37.4752C18.1982 37.7691 18.4291 38 18.723 38L15.5743 38C14.7032 38 14 37.2968 14 36.4256V14.5738C14 14.112 14.1994 13.6712 14.5563 13.3773C14.9131 13.0729 15.3749 12.947 15.8367 13.0204Z" fill="white"/>
</svg>
