<svg width="50" height="50" viewBox="0 0 50 50" fill="none" xmlns="http://www.w3.org/2000/svg">
<path d="M30.9674 38C30.1604 38 29.3602 37.8573 28.5778 37.5731C25.1308 36.3209 21.9312 34.2814 19.3249 31.6751C16.7185 29.0688 14.6791 25.8692 13.4269 22.4222C13.0245 21.3144 12.9058 20.1709 13.0741 19.0233C13.2318 17.9483 13.6481 16.9048 14.2783 16.0054C14.9112 15.1021 15.755 14.3507 16.7185 13.8326C17.7459 13.2802 18.8673 13 20.0516 13C20.4199 13 20.7383 13.2574 20.8155 13.6175L22.0417 19.3399C22.0972 19.599 22.0176 19.8686 21.8302 20.056L19.735 22.1512C21.7115 26.0811 24.9188 29.2883 28.8486 31.2649L30.9439 29.1696C31.1313 28.9823 31.4009 28.9028 31.66 28.9582L37.3824 30.1844C37.7426 30.2616 37.9999 30.5799 37.9999 30.9483C37.9999 32.1326 37.7197 33.2541 37.1672 34.2815C36.6491 35.2449 35.8978 36.0887 34.9944 36.7216C34.0951 37.3518 33.0516 37.7682 31.9765 37.9258C31.6397 37.9753 31.3029 38 30.9674 38V38ZM19.4274 14.5966C17.8652 14.7691 16.4786 15.5879 15.5579 16.902C14.5225 18.3798 14.281 20.1973 14.8955 21.8887C17.3028 28.5157 22.4843 33.6972 29.1112 36.1045C30.8026 36.719 32.6202 36.4776 34.0979 35.4421C35.4121 34.5213 36.2309 33.1348 36.4034 31.5726L31.7482 30.5751L29.56 32.7633C29.3272 32.9961 28.9734 33.058 28.6755 32.9179C24.0277 30.7344 20.2656 26.9723 18.082 22.3245C17.9421 22.0265 18.0039 21.6727 18.2367 21.4399L20.4249 19.2517L19.4274 14.5966Z" fill="white"/>
</svg>
