<svg width="16" height="18" viewBox="0 0 16 18" fill="none" xmlns="http://www.w3.org/2000/svg">
<path d="M7.99991 3.86914C6.1573 3.86914 4.6582 5.36824 4.6582 7.21085C4.6582 9.05346 6.1573 10.5526 7.99991 10.5526C9.84252 10.5526 11.3416 9.05346 11.3416 7.21085C11.3416 5.36824 9.84255 3.86914 7.99991 3.86914ZM7.99991 9.14553C6.93313 9.14553 6.06523 8.27763 6.06523 7.21085C6.06523 6.14407 6.93313 5.27616 7.99991 5.27616C9.06669 5.27616 9.93459 6.14407 9.93459 7.21085C9.93459 8.27763 9.06669 9.14553 7.99991 9.14553Z" fill="white"/>
<path d="M7.99989 0C4.02369 0 0.788818 3.2349 0.788818 7.21107V7.41041C0.788818 9.42135 1.94173 11.7647 4.21564 14.3753C5.86404 16.2679 7.48942 17.5875 7.55777 17.6427L7.99989 18L8.44202 17.6428C8.5104 17.5875 10.1358 16.2679 11.7841 14.3754C14.058 11.7647 15.211 9.42138 15.211 7.41045V7.21111C15.211 3.2349 11.9761 0 7.99989 0ZM13.8039 7.41045C13.8039 10.8088 9.4252 14.9226 7.99989 16.1715C6.5742 14.9222 2.19584 10.8086 2.19584 7.41045V7.21111C2.19584 4.01077 4.79955 1.40706 7.99989 1.40706C11.2002 1.40706 13.8039 4.01077 13.8039 7.21111V7.41045V7.41045Z" fill="white"/>
</svg>
