<svg width="50" height="50" viewBox="0 0 50 50" fill="none" xmlns="http://www.w3.org/2000/svg">
<path d="M41.9252 20.8485L30.421 12.1733C30.1146 11.9422 29.6926 11.9422 29.3861 12.1733L27.495 13.5994L25.6038 12.1733C25.2974 11.9422 24.8753 11.9422 24.5689 12.1733L22.7249 13.5638L20.8808 12.1733C20.5744 11.9422 20.1524 11.9422 19.8459 12.1733L8.34177 20.8485C8.12657 21.0109 8 21.265 8 21.5346V36.1407C8 36.6153 8.38474 37 8.85934 37H13.5823H18.3993H31.8678H36.5908H41.4078C41.8824 37 42.2671 36.6153 42.2671 36.1407V21.5346C42.2671 21.265 42.1405 21.0109 41.9252 20.8485ZM40.5484 35.2813H37.4501V21.5346C37.4501 21.2649 37.3235 21.0109 37.1082 20.8485L28.9223 14.6757L29.9036 13.9357L40.5484 21.9629V35.2813ZM32.7272 35.2813V21.5346C32.7272 21.2649 32.6006 21.0109 32.3853 20.8485L24.1522 14.6402L25.0865 13.9358L35.7314 21.9631V35.2814L32.7272 35.2813ZM21.7709 35.2812H19.2586H18.9562V29.0497H21.7709V35.2812ZM23.4896 35.2812V28.1904C23.4896 27.7158 23.1048 27.331 22.6302 27.331H18.0968C17.6222 27.331 17.2375 27.7158 17.2375 28.1904V35.2812H14.4416H9.71869V21.9628L20.3635 13.9356L31.0085 21.9628V35.2812H23.4896Z" fill="#0061DF"/>
</svg>
