<svg width="50" height="50" viewBox="0 0 50 50" fill="none" xmlns="http://www.w3.org/2000/svg">
<path d="M34.456 20.0391C35.4344 19.3053 36.3151 18.4247 37 17.3973C36.1194 17.7886 35.092 18.0822 34.0646 18.18C35.1409 17.544 35.9237 16.5656 36.3151 15.3425C35.3366 15.9295 34.2114 16.3699 33.0861 16.6145C32.1076 15.5871 30.7867 15 29.319 15C26.4814 15 24.182 17.2994 24.182 20.137C24.182 20.5284 24.2309 20.9198 24.3288 21.3112C20.0724 21.0665 16.2564 19.0117 13.7123 15.9295C13.272 16.6634 13.0274 17.544 13.0274 18.5225C13.0274 20.2838 13.908 21.8493 15.3268 22.7789C14.4951 22.7299 13.6634 22.5342 12.9785 22.1429V22.1918C12.9785 24.6869 14.7397 26.7417 17.0881 27.2309C16.6967 27.3288 16.2074 27.4266 15.7671 27.4266C15.4247 27.4266 15.1311 27.3777 14.7886 27.3288C15.4247 29.3836 17.3327 30.8513 19.5832 30.9002C17.8219 32.2701 15.6204 33.1018 13.2231 33.1018C12.7828 33.1018 12.3914 33.0528 12 33.0039C14.2505 34.4716 16.9413 35.3033 19.8767 35.3033C29.319 35.3033 34.456 27.5245 34.456 20.7241C34.456 20.4795 34.456 20.2838 34.456 20.0391Z" fill="white"/>
</svg>
