<svg width="50" height="50" viewBox="0 0 50 50" fill="none" xmlns="http://www.w3.org/2000/svg">
<path d="M17.8226 23.2903H21.0484C21.2709 23.2903 21.4516 23.11 21.4516 22.8871V20.4677C21.4516 20.2447 21.2709 20.0645 21.0484 20.0645H17.8226C17.6 20.0645 17.4193 20.2447 17.4193 20.4677V22.8871C17.4193 23.11 17.6 23.2903 17.8226 23.2903ZM20.6451 22.4838H19.8387V20.8709H20.6451V22.4838ZM18.2258 20.8709H19.0322V22.4838H18.2258V20.8709Z" fill="white"/>
<path d="M22.6613 23.2903H25.8871C26.1096 23.2903 26.2903 23.11 26.2903 22.8871V20.4677C26.2903 20.2447 26.1096 20.0645 25.8871 20.0645H22.6613C22.4387 20.0645 22.258 20.2447 22.258 20.4677V22.8871C22.258 23.11 22.4387 23.2903 22.6613 23.2903ZM25.4838 22.4838H24.6774V20.8709H25.4838V22.4838ZM23.0645 20.8709H23.8709V22.4838H23.0645V20.8709Z" fill="white"/>
<path d="M39.7124 24.517L27.9032 20.9743V20.4678H30.7257C31.6153 20.4678 32.3386 19.7444 32.3386 18.8549C32.3386 18.1045 31.8233 17.4719 31.1282 17.2928C31.129 17.2759 31.129 17.259 31.129 17.242C31.129 16.1303 30.2245 15.2259 29.1128 15.2259C28.2987 15.2259 27.577 15.7158 27.2645 16.4489C27.05 16.4739 26.8439 16.5364 26.6491 16.6275L22.1399 12.1182C21.9822 11.9606 21.7274 11.9606 21.5697 12.1182L15.9246 17.7634C15.8488 17.8388 15.8064 17.9412 15.8064 18.0485V34.5807H15.4032C15.1806 34.5807 15 34.7609 15 34.9839V36.5968C15 36.8198 15.1806 37 15.4032 37H39.5967C39.8193 37 39.9999 36.8198 39.9999 36.5968V34.9839C39.9999 34.7609 39.8193 34.5807 39.5967 34.5807H39.1934V27.2194L39.4809 27.3057C39.5189 27.317 39.558 27.3226 39.5967 27.3226C39.6822 27.3226 39.7668 27.2956 39.8374 27.2432C39.9398 27.1666 39.9999 27.0468 39.9999 26.9194V24.9033C39.9999 24.7255 39.883 24.5682 39.7124 24.517ZM27.0967 18.4517V24.0968H16.6129V18.4517H27.0967ZM27.0967 26.5162H26.2903V24.9033H27.0967V26.5162ZM19.0322 24.9033V26.5162H18.2258V24.9033H19.0322ZM19.8387 24.9033H20.6451V26.5162H19.8387V24.9033ZM21.4516 24.9033H22.258V26.5162H21.4516V24.9033ZM23.0645 24.9033H23.8709V26.5162H23.0645V24.9033ZM24.6774 24.9033H25.4838V26.5162H24.6774V24.9033ZM17.4193 24.9033V26.5162H16.6129V24.9033H17.4193ZM27.0967 27.3226V28.1291H16.6129V27.3226H27.0967ZM27.4737 17.2408C27.487 17.2428 27.5249 17.2469 27.5383 17.2473C27.7334 17.2658 27.8987 17.1287 27.9459 16.944C28.083 16.4073 28.5628 16.0323 29.1128 16.0323C29.7798 16.0323 30.3225 16.5751 30.3225 17.242C30.3225 17.3331 30.308 17.4303 30.277 17.5485C30.2443 17.6723 30.2721 17.8041 30.3524 17.9037C30.4322 18.0033 30.5572 18.0646 30.6826 18.0541C30.706 18.0533 30.7282 18.0505 30.7257 18.0485C31.1705 18.0485 31.5322 18.4102 31.5322 18.8549C31.5322 19.2997 31.1705 19.6614 30.7257 19.6614H27.9032V18.0485C27.9032 17.9412 27.8608 17.8388 27.785 17.7634L27.2826 17.261C27.3467 17.2489 27.4108 17.2412 27.4737 17.2408ZM21.8548 12.9735L26.5266 17.6452H17.1831L21.8548 12.9735ZM16.6129 28.9355H27.0967V34.5807H24.6774V30.9516C24.6774 30.7287 24.4967 30.5484 24.2742 30.5484H19.4355C19.2129 30.5484 19.0322 30.7287 19.0322 30.9516V34.5807H16.6129V28.9355ZM19.8387 34.5807V31.3549H21.4516V34.5807H19.8387ZM22.258 31.3549H23.8709V34.5807H22.258V31.3549ZM39.1934 36.1936H15.8064V35.3871H39.1934V36.1936ZM36.7741 29.742H29.5161V28.9355H36.7741V29.742ZM29.5161 30.5484H36.7741V31.3549H29.5161V30.5484ZM29.5161 32.1613H36.7741V34.5807H29.5161V32.1613ZM38.387 34.5807H37.5806V28.5323C37.5806 28.3093 37.3999 28.1291 37.1773 28.1291H29.1128C28.8903 28.1291 28.7096 28.3093 28.7096 28.5323V34.5807H27.9032V23.8323L38.387 26.9775V34.5807ZM39.1934 26.3775L27.9032 22.9904V21.8162L39.1934 25.2033V26.3775Z" fill="white"/>
<path d="M34.758 17.2419H37.9838C39.0955 17.2419 39.9999 16.3375 39.9999 15.2258C39.9999 14.1935 39.2205 13.3403 38.2193 13.2234C37.9068 12.4899 37.185 12 36.3709 12C35.2592 12 34.3548 12.9044 34.3548 14.0161C34.3548 14.0331 34.3548 14.05 34.3556 14.0669C33.6604 14.246 33.1451 14.8786 33.1451 15.629C33.1451 16.5185 33.8685 17.2419 34.758 17.2419ZM34.733 14.8214C34.7467 14.8234 34.787 14.8278 34.8007 14.8282C34.9289 14.8383 35.0511 14.7778 35.131 14.6778C35.2112 14.5782 35.239 14.4464 35.2064 14.3226C35.1757 14.2044 35.1612 14.1072 35.1612 14.0161C35.1612 13.3492 35.7039 12.8064 36.3709 12.8064C36.9209 12.8064 37.4007 13.1814 37.5378 13.7181C37.585 13.9028 37.7564 14.031 37.9455 14.0214C37.9672 14.0206 37.9886 14.0181 37.9838 14.0161C38.6507 14.0161 39.1934 14.5589 39.1934 15.2258C39.1934 15.8927 38.6507 16.4355 37.9838 16.4355H34.758C34.3132 16.4355 33.9515 16.0738 33.9515 15.629C33.9515 15.1843 34.3132 14.8226 34.733 14.8214Z" fill="white"/>
</svg>
