<svg width="59" height="59" viewBox="0 0 59 59" fill="none" xmlns="http://www.w3.org/2000/svg">
<path d="M6.5625 26.25H14.0625C14.58 26.25 15 25.8309 15 25.3125V19.6875C15 19.1691 14.58 18.75 14.0625 18.75H6.5625C6.045 18.75 5.625 19.1691 5.625 19.6875V25.3125C5.625 25.8309 6.045 26.25 6.5625 26.25ZM13.125 24.375H11.25V20.625H13.125V24.375ZM7.5 20.625H9.375V24.375H7.5V20.625Z" fill="white"/>
<path d="M17.8125 26.25H25.3125C25.83 26.25 26.25 25.8309 26.25 25.3125V19.6875C26.25 19.1691 25.83 18.75 25.3125 18.75H17.8125C17.295 18.75 16.875 19.1691 16.875 19.6875V25.3125C16.875 25.8309 17.295 26.25 17.8125 26.25ZM24.375 24.375H22.5V20.625H24.375V24.375ZM18.75 20.625H20.625V24.375H18.75V20.625Z" fill="white"/>
<path d="M57.4566 29.1021L30 20.8652V19.6877H36.5625C38.6306 19.6877 40.3125 18.0059 40.3125 15.9377C40.3125 14.193 39.1144 12.7221 37.4981 12.3059C37.5 12.2665 37.5 12.2271 37.5 12.1877C37.5 9.60305 35.3972 7.50023 32.8125 7.50023C30.9197 7.50023 29.2416 8.6393 28.515 10.3437C28.0163 10.4018 27.5372 10.5471 27.0844 10.759L16.6003 0.274922C16.2338 -0.0916406 15.6412 -0.0916406 15.2747 0.274922L2.14969 13.3999C1.97344 13.5752 1.875 13.8134 1.875 14.0627V52.5002H0.9375C0.42 52.5002 0 52.9193 0 53.4377V57.1877C0 57.7062 0.42 58.1252 0.9375 58.1252H57.1875C57.705 58.1252 58.125 57.7062 58.125 57.1877V53.4377C58.125 52.9193 57.705 52.5002 57.1875 52.5002H56.25V35.3852L56.9184 35.5859C57.0066 35.6121 57.0975 35.6252 57.1875 35.6252C57.3862 35.6252 57.5831 35.5624 57.7472 35.4406C57.9853 35.2624 58.125 34.984 58.125 34.6877V30.0002C58.125 29.5868 57.8531 29.2212 57.4566 29.1021ZM28.125 15.0002V28.1252H3.75V15.0002H28.125ZM28.125 33.7502H26.25V30.0002H28.125V33.7502ZM9.375 30.0002V33.7502H7.5V30.0002H9.375ZM11.25 30.0002H13.125V33.7502H11.25V30.0002ZM15 30.0002H16.875V33.7502H15V30.0002ZM18.75 30.0002H20.625V33.7502H18.75V30.0002ZM22.5 30.0002H24.375V33.7502H22.5V30.0002ZM5.625 30.0002V33.7502H3.75V30.0002H5.625ZM28.125 35.6252V37.5002H3.75V35.6252H28.125ZM29.0016 12.1849C29.0325 12.1896 29.1206 12.199 29.1516 12.1999C29.6053 12.243 29.9897 11.9243 30.0994 11.4949C30.4181 10.2471 31.5338 9.37523 32.8125 9.37523C34.3631 9.37523 35.625 10.6371 35.625 12.1877C35.625 12.3996 35.5913 12.6255 35.5191 12.9002C35.4431 13.188 35.5078 13.4946 35.6944 13.7262C35.88 13.9577 36.1706 14.1002 36.4622 14.0759C36.5166 14.074 36.5681 14.0674 36.5625 14.0627C37.5966 14.0627 38.4375 14.9037 38.4375 15.9377C38.4375 16.9718 37.5966 17.8127 36.5625 17.8127H30V14.0627C30 13.8134 29.9016 13.5752 29.7253 13.3999L28.5572 12.2318C28.7063 12.2037 28.8553 12.1859 29.0016 12.1849V12.1849ZM15.9375 2.26336L26.7994 13.1252H5.07563L15.9375 2.26336ZM3.75 39.3752H28.125V52.5002H22.5V44.0627C22.5 43.5443 22.08 43.1252 21.5625 43.1252H10.3125C9.795 43.1252 9.375 43.5443 9.375 44.0627V52.5002H3.75V39.3752ZM11.25 52.5002V45.0002H15V52.5002H11.25ZM16.875 45.0002H20.625V52.5002H16.875V45.0002ZM56.25 56.2502H1.875V54.3752H56.25V56.2502ZM50.625 41.2502H33.75V39.3752H50.625V41.2502ZM33.75 43.1252H50.625V45.0002H33.75V43.1252ZM33.75 46.8752H50.625V52.5002H33.75V46.8752ZM54.375 52.5002H52.5V38.4377C52.5 37.9193 52.08 37.5002 51.5625 37.5002H32.8125C32.295 37.5002 31.875 37.9193 31.875 38.4377V52.5002H30V27.5102L54.375 34.8227V52.5002ZM56.25 33.4277L30 25.5527V22.8227L56.25 30.6977V33.4277Z" fill="white"/>
<path d="M45.9375 12.1875H53.4375C56.0222 12.1875 58.125 10.0847 58.125 7.5C58.125 5.1 56.3128 3.11625 53.985 2.84437C53.2584 1.13906 51.5803 0 49.6875 0C47.1028 0 45 2.10281 45 4.6875C45 4.72687 45 4.76625 45.0019 4.80562C43.3856 5.22187 42.1875 6.69281 42.1875 8.4375C42.1875 10.5056 43.8694 12.1875 45.9375 12.1875ZM45.8794 6.55969C45.9112 6.56438 46.005 6.57469 46.0369 6.57562C46.335 6.59906 46.6191 6.45844 46.8047 6.22594C46.9912 5.99437 47.0559 5.68781 46.98 5.4C46.9087 5.12531 46.875 4.89937 46.875 4.6875C46.875 3.13687 48.1369 1.875 49.6875 1.875C50.9662 1.875 52.0819 2.74688 52.4006 3.99469C52.5103 4.42406 52.9087 4.72219 53.3484 4.69969C53.3991 4.69781 53.4488 4.69219 53.4375 4.6875C54.9881 4.6875 56.25 5.94937 56.25 7.5C56.25 9.05063 54.9881 10.3125 53.4375 10.3125H45.9375C44.9034 10.3125 44.0625 9.47156 44.0625 8.4375C44.0625 7.40344 44.9034 6.5625 45.8794 6.55969Z" fill="white"/>
</svg>
